<svg width="262" height="262" viewBox="0 0 262 262" fill="none" xmlns="http://www.w3.org/2000/svg">
<g clip-path="url(#clip0_107_8)">
<path d="M121.378 28.4939L131.207 8.14185L139.881 28.8649L121.378 28.4939Z" fill="#896906"/>
<path d="M233.505 122.147L253.871 131.948L233.16 140.651L233.505 122.147Z" fill="#896906"/>
<path d="M141.15 233.284L130.228 253.071L122.695 231.907L141.15 233.284Z" fill="#896906"/>
<path d="M27.7428 140.523L7.71582 130.047L28.7057 122.042L27.7428 140.523Z" fill="#896906"/>
<path d="M130.988 261.954C59.5759 262.525 -1.72992 203.177 0.0372825 127.711C1.66642 58.5103 58.1707 0.0345099 131.022 0.00074436C203.56 -0.0299516 262.687 59.1365 261.917 132.577C261.172 203.859 202.83 262.261 130.988 261.954ZM218.697 217.638C218.17 217.514 217.651 217.354 217.145 217.159C213.165 215.318 209.193 213.46 205.229 211.588C204.452 211.226 203.808 211.06 203.023 211.772C187.151 226.061 167.37 235.275 146.224 238.229C143.803 238.564 141.361 238.766 138.925 238.978C137.949 239.064 137.391 239.441 137.124 240.449C136.734 241.922 136.176 243.349 135.697 244.798C134.387 248.739 133.077 252.684 131.647 257C164.061 256.322 192.309 245.605 215.943 223.796C242.508 199.288 255.812 168.605 256.904 132.27L239.416 138.074C238.275 144.566 237.48 150.789 236.041 156.863C232.175 173.289 224.579 187.891 213.755 200.82C210.972 204.147 210.993 204.092 213.163 207.794C215.065 211.045 216.844 214.375 218.657 217.672L218.697 217.638ZM251.338 131.349C251.003 131.166 250.658 131.001 250.305 130.855C246.095 129.473 241.877 128.126 237.686 126.692C237.411 126.591 237.162 126.433 236.953 126.228C236.745 126.023 236.583 125.777 236.477 125.504C236.222 124.423 236.222 123.282 236.154 122.165C235.52 111.897 233.114 102.013 229.356 92.4845C222.303 74.6011 211.202 59.7187 196.052 47.8373C178.776 34.2636 159.107 26.9825 137.243 25.4477C136.978 25.4009 136.725 25.2935 136.507 25.1338C136.289 24.9741 136.111 24.7665 135.986 24.5268C135.222 22.5285 134.599 20.478 133.921 18.446C133.077 15.9319 132.23 13.421 131.267 10.5602C130.936 11.3859 130.724 11.8371 130.568 12.3068C129.233 16.3187 127.889 20.3245 126.601 24.3519C126.349 25.1408 126.045 25.5122 125.137 25.5091C123.659 25.5348 122.184 25.6373 120.716 25.8161C112.655 26.608 104.712 28.3187 97.0399 30.9147C81.641 36.1504 67.6551 44.8672 56.1694 56.388C44.6836 67.9089 36.0068 81.9234 30.8129 97.3436C27.8584 106.227 25.9593 115.316 25.5573 124.7C25.5358 125.179 24.9438 125.861 24.4559 126.048C22.5077 126.797 20.4981 127.38 18.5161 128.04C15.9605 128.89 13.414 129.753 10.4196 130.759C15.3284 132.393 19.7372 133.905 24.1859 135.318C25.2014 135.64 25.5358 136.168 25.6157 137.159C25.8826 140.41 26.1556 143.661 26.5606 146.896C27.4146 153.362 28.9637 159.718 31.1811 165.851C35.9226 179.329 43.3286 191.714 52.9574 202.265C62.5861 212.818 74.2404 221.322 87.2256 227.271C98.9694 232.599 111.27 235.841 124.211 236.412C125.281 236.458 125.883 236.915 126.189 237.947C126.772 239.899 127.417 241.833 128.07 243.779C128.899 246.287 129.742 248.789 130.69 251.634C132.258 246.947 133.811 242.683 135.066 238.337C135.516 236.784 136.344 236.495 137.645 236.427C139.278 236.347 140.913 236.277 142.533 236.102C152.311 235.054 161.889 232.621 170.983 228.876C189.403 221.357 205.319 208.777 216.896 192.59C228.472 176.404 235.235 157.271 236.403 137.402C236.449 136.61 236.664 136.232 237.419 135.993C240.486 135.017 243.515 133.983 246.559 132.963C248.089 132.445 249.614 131.92 251.338 131.349ZM256.95 130.379C255.723 91.2259 240.824 58.9155 210.984 33.9566C188.352 15.0111 161.96 5.74089 132.178 5.07479C133.961 10.379 135.789 15.2475 137.176 20.2355C137.79 22.4609 138.858 23.1792 140.965 23.3051C149.451 23.827 157.662 25.7393 165.697 28.4559C179.97 33.2394 193.06 41.0124 204.093 51.2569C204.799 51.9076 205.357 52.0765 206.241 51.6283C208.333 50.5723 210.469 49.6054 212.595 48.617C214.58 47.6962 216.583 46.7753 218.559 45.8728L218.743 46.1276L211.582 58.713C213.012 60.4043 214.452 62.0004 215.771 63.6856C224.713 75.0984 231.273 87.745 235.191 101.727C237.175 108.794 238.426 116.046 238.925 123.368C238.952 123.807 239.324 124.473 239.686 124.595C245.27 126.499 250.863 128.344 256.95 130.366V130.379ZM5.00446 129.682C5.76227 129.495 6.15498 129.427 6.53848 129.305C11.1774 127.764 15.8142 126.218 20.449 124.67C22.971 123.828 22.9618 123.828 23.1673 121.235C23.244 120.271 23.3637 119.307 23.4741 118.343C24.3333 110.955 25.9568 103.677 28.3186 96.6257C30.9786 88.6446 34.4117 81.0291 39.0016 73.9964C42.3979 68.7934 46.1777 63.8391 49.9238 58.5809L42.628 45.7777C43.4104 46.0846 43.8245 46.2258 44.2203 46.41C48.0063 48.175 51.8045 49.9247 55.5721 51.7388C56.3882 52.1317 56.919 52.0918 57.594 51.4595C63.154 46.257 69.2708 41.6842 75.8339 37.8243C84.7896 32.5154 94.4677 28.5346 104.566 26.0063C111.065 24.4194 117.687 23.3925 124.361 22.9368C126.3 17.0738 128.239 11.2139 130.273 5.05944C97.3557 5.78386 68.7923 16.8068 45.0149 39.1688C19.093 63.5107 6.13657 93.8656 5.00446 129.67V129.682ZM129.73 257.012C127.806 251.238 125.972 245.894 124.278 240.507C123.916 239.353 123.306 238.996 122.256 238.877C118.823 238.487 115.369 238.192 111.966 237.618C100.001 235.605 88.7559 231.51 78.1714 225.601C71.2457 221.756 64.7831 217.131 58.9102 211.815C58.2106 211.18 57.6185 210.962 56.6398 211.456C53.4061 213.077 50.1049 214.563 46.8221 216.085C45.558 216.675 44.2786 217.227 42.6863 217.926C42.9931 217.294 43.125 217.006 43.2754 216.757C45.5058 212.862 47.7148 208.951 49.9944 205.093C50.5804 204.098 50.5773 203.407 49.7213 202.554C48.6656 201.444 47.6711 200.276 46.7422 199.058C37.615 187.813 30.8659 174.83 26.9042 160.897C24.8916 153.836 23.4741 146.647 23.1305 139.284C23.0814 138.256 22.747 137.568 21.5965 137.196C16.4115 135.542 11.2664 133.765 6.09975 132.043C5.73758 131.975 5.36966 131.945 5.00139 131.95C6.07215 168.786 19.6115 199.874 46.8282 224.567C70.1699 245.747 97.957 256.189 129.73 257V257.012Z" fill="#FBC105"/>
<path d="M130.925 236.687C189.336 236.687 236.687 189.336 236.687 130.926C236.687 72.5152 189.336 25.1641 130.925 25.1641C72.5147 25.1641 25.1636 72.5152 25.1636 130.926C25.1636 189.336 72.5147 236.687 130.925 236.687Z" fill="#896906"/>
<path d="M256.95 130.366C250.863 128.344 245.27 126.499 239.686 124.595C239.324 124.47 238.952 123.804 238.925 123.368C238.426 116.049 237.176 108.802 235.194 101.739C231.276 87.757 224.717 75.1107 215.773 63.6979C214.454 62.0127 213.012 60.4165 211.585 58.7252L218.746 46.1398L218.562 45.8851C216.574 46.8059 214.574 47.7053 212.598 48.6292C210.472 49.6176 208.337 50.5845 206.244 51.6405C205.357 52.0887 204.799 51.9198 204.096 51.2691C193.063 41.0247 179.973 33.2516 165.7 28.4681C157.662 25.7546 149.451 23.83 140.956 23.2989C138.848 23.17 137.787 22.4517 137.167 20.2293C135.78 15.2413 133.951 10.3728 132.169 5.0686C161.951 5.7347 188.342 15.008 210.975 33.9382C240.824 58.9063 255.725 91.2138 256.95 130.366Z" fill="#888888"/>
<path d="M5.00439 129.67C6.13651 93.8656 19.0929 63.5107 45.0057 39.1504C68.7831 16.7884 97.3466 5.76545 130.264 5.04102C128.229 11.1802 126.291 17.0554 124.352 22.9184C117.678 23.3741 111.055 24.401 104.557 25.9879C94.4585 28.5162 84.7797 32.497 75.824 37.8059C69.2616 41.6658 63.1447 46.2385 57.5847 51.441C56.9097 52.0734 56.379 52.1133 55.5628 51.7203C51.7984 49.9063 48.0001 48.1565 44.211 46.3915C43.8152 46.2074 43.4011 46.0693 42.6187 45.7592L49.9145 58.5625C46.1685 63.8207 42.3886 68.775 38.9923 73.978C34.3902 81.0102 30.9694 88.6355 28.3093 96.6068C25.9475 103.659 24.324 110.937 23.4649 118.325C23.3514 119.289 23.2317 120.252 23.158 121.216C22.9525 123.81 22.9617 123.81 20.4398 124.651C15.8049 126.198 11.1681 127.743 6.52921 129.286C6.15491 129.415 5.7622 129.482 5.00439 129.67Z" fill="#888888"/>
<path d="M218.651 217.657C216.81 214.36 215.059 211.03 213.157 207.779C210.99 204.077 210.966 204.132 213.749 200.805C224.573 187.875 232.157 173.274 236.035 156.848C237.464 150.773 238.259 144.551 239.41 138.059L256.898 132.254C255.811 168.605 242.508 199.288 215.943 223.796C192.318 245.605 164.061 256.334 131.647 256.999C133.077 252.684 134.387 248.739 135.697 244.798C136.176 243.349 136.735 241.921 137.124 240.449C137.391 239.441 137.949 239.064 138.925 238.978C141.361 238.766 143.803 238.564 146.224 238.229C167.37 235.275 187.151 226.061 203.023 211.772C203.808 211.06 204.452 211.226 205.229 211.588C209.199 213.452 213.171 215.309 217.145 217.159C217.645 217.352 218.157 217.513 218.679 217.638L218.621 217.721L218.651 217.657Z" fill="#888888"/>
<path d="M129.73 256.999C97.9577 256.189 70.17 245.746 46.816 224.557C19.5993 199.865 6.06 168.77 4.98926 131.941C5.35752 131.935 5.72545 131.966 6.08762 132.034C11.2542 133.755 16.3994 135.533 21.5843 137.187C22.7471 137.558 23.0816 138.246 23.1184 139.274C23.462 146.641 24.8795 153.821 26.8921 160.888C30.8538 174.821 37.6029 187.803 46.7301 199.049C47.659 200.267 48.6535 201.435 49.7092 202.545C50.5652 203.398 50.5683 204.08 49.9823 205.084C47.7027 208.951 45.4937 212.862 43.2632 216.748C43.1129 217.009 42.9902 217.285 42.6741 217.917C44.2665 217.206 45.5458 216.653 46.8099 216.076C50.0927 214.541 53.3939 213.067 56.6277 211.447C57.6064 210.952 58.1985 211.17 58.898 211.806C64.7752 217.121 71.2419 221.744 78.1714 225.585C88.7567 231.494 100.001 235.589 111.966 237.603C115.369 238.177 118.823 238.471 122.256 238.861C123.306 238.981 123.916 239.337 124.278 240.491C125.972 245.882 127.807 251.225 129.73 256.999Z" fill="#888888"/>
<path d="M37.216 126.13L42.1249 122.447C42.6281 123.405 42.4869 124.077 41.6463 124.673C40.7259 125.32 39.9343 126.149 38.9709 126.698C37.532 127.521 37.1853 128.65 37.2528 130.234C37.3817 133.188 37.2896 136.147 37.2896 139.268C38.7899 139.268 40.1429 139.213 41.4837 139.302C41.9102 139.329 42.312 139.735 42.7109 139.965C42.3304 140.244 41.9746 140.717 41.5665 140.767C40.3983 140.882 39.2243 140.93 38.0505 140.911C35.1972 140.926 32.344 140.911 29.549 140.911C29.4293 140.748 29.3219 140.668 29.3219 140.604C29.1992 136.165 29.0335 131.723 28.9905 127.284C28.963 124.286 30.8896 122.515 33.7184 122.803C35.6298 122.99 36.5871 124.289 37.216 126.13ZM35.7219 139.299C35.7219 135.029 35.7741 130.858 35.6942 126.686C35.6636 125.127 34.5805 124.249 33.114 124.252C31.6475 124.255 30.589 125.136 30.5553 126.707C30.4694 130.873 30.5246 135.044 30.5246 139.293L35.7219 139.299Z" fill="white"/>
<path d="M224.515 122.205H219.345C219.318 121.725 219.293 121.314 219.25 120.571C223.514 120.571 227.644 120.553 231.77 120.615C232.078 120.615 232.596 121.228 232.602 121.554C232.694 126.158 232.771 130.762 232.718 135.367C232.697 137.049 231.151 138.507 229.386 138.903C227.908 139.238 226.089 138.314 225.171 136.754C224.969 136.407 224.821 136.033 224.558 135.502L219.722 139.145C219.342 138.05 219.526 137.328 220.425 136.69C221.839 135.693 223.705 134.848 224.389 133.448C225.073 132.049 224.511 130.072 224.508 128.35C224.511 126.351 224.515 124.368 224.515 122.205ZM226.076 122.165C226.076 126.404 226.058 130.428 226.076 134.443C226.076 136.073 227.343 137.467 228.718 137.491C230.092 137.516 231.212 136.174 231.218 134.397C231.218 131.483 231.213 128.569 231.203 125.655C231.178 122.084 231.169 122.084 227.681 122.15C227.187 122.171 226.684 122.165 226.076 122.165Z" fill="white"/>
<path d="M79.411 52.5124L81.8008 56.9848L80.5741 57.7799C78.4016 53.8415 76.2783 50.0076 74.1001 46.0386L83.1782 41.0321C84.1633 40.4888 85.1386 39.9363 86.1359 39.4236C88.2834 38.3278 90.3673 38.6225 91.6773 40.1787C92.904 41.6338 92.7904 43.7579 91.3888 45.6826C91.3024 45.8023 91.2229 45.9312 91.048 46.189L96.653 48.7767C95.8587 49.5625 95.1196 49.8142 94.1988 49.3077C93.4378 48.8995 92.561 48.6754 91.8613 48.1873C90.0568 46.9227 88.4863 47.3125 86.7311 48.4052C84.3965 49.8603 81.9424 51.1035 79.411 52.5124ZM78.675 51.171L89.008 45.5014C89.2413 45.4008 89.4578 45.2663 89.6525 45.1024C90.1 44.6327 90.8027 44.1539 90.861 43.6198C90.9496 42.7941 90.861 41.603 90.3453 41.1488C89.7138 40.5932 88.3758 40.2095 87.6549 40.5103C85.3628 41.4588 83.2062 42.7419 81.0125 43.9298C79.3867 44.8077 77.7882 45.7378 76.1557 46.6587L78.675 51.171Z" fill="white"/>
<path d="M97.9356 40.6331L112.586 36.4492C112.739 36.9649 112.859 37.3701 113 37.8581L98.4846 42.0727C98.9238 44.6236 101.083 45.9251 103.495 45.2344L114.138 42.1801L114.672 43.6045C110.708 44.7156 106.885 45.968 102.976 46.8214C100.273 47.4138 97.8591 45.5936 97.0368 42.9261C96.4075 40.8909 95.6253 38.9141 96.6869 36.7316C97.011 36.0352 97.4798 35.4158 98.0613 34.9146C98.6436 34.4134 99.3251 34.0419 100.062 33.8247C103.259 32.8149 106.504 31.9247 109.732 31.0621C110.159 30.9515 110.711 31.3261 111.205 31.4734C110.858 31.808 110.567 32.3236 110.159 32.4496C107.241 33.3367 104.299 34.1532 101.363 34.9758C98.3498 35.823 97.3313 37.3977 97.9356 40.6331Z" fill="white"/>
<path d="M38.9585 102.602C40.0568 102.66 40.4741 102.927 40.1857 104.109C39.1395 108.603 38.2191 113.128 37.2557 117.615C39.434 118.662 41.7841 117.37 42.4223 114.717C43.131 111.749 43.7109 108.753 44.346 105.767C44.481 105.129 44.619 104.486 44.7724 103.766L46.1715 104.165C45.4075 107.888 44.7602 111.532 43.8919 115.135C43.131 118.294 40.5171 119.893 37.268 119.362C36.1108 119.206 34.9773 118.909 33.8932 118.475C31.9204 117.618 30.5367 116.056 30.7852 113.846C31.1472 110.62 31.8652 107.434 32.4512 104.232C32.5548 103.582 32.7287 102.945 32.9696 102.332C33.1261 101.969 33.525 101.718 33.8134 101.411C34.0067 101.847 34.427 102.332 34.3533 102.706C33.7765 105.598 33.0954 108.468 32.4573 111.344C32.1505 112.793 31.6749 114.325 32.7641 115.596C33.479 116.437 34.4822 117.032 35.6327 117.959C36.817 112.526 37.8846 107.574 38.9585 102.602Z" fill="white"/>
<path d="M217.2 157.551C216.083 157.719 215.718 157.392 215.955 156.323C216.679 153.047 217.29 149.745 218.032 146.475C218.716 143.465 221.042 141.81 224.103 142.142C225.368 142.268 226.614 142.532 227.822 142.927C230.178 143.728 231.644 146.402 231.154 148.996C230.522 152.345 229.736 155.663 229.108 159.012C228.921 160.012 228.494 160.172 227.426 159.831C227.927 157.361 228.426 154.893 228.921 152.428C229.184 151.132 229.534 149.853 229.709 148.545C229.998 146.206 228.623 144.499 226.159 144.146C225.797 145.748 225.413 147.36 225.073 148.983C224.481 151.82 223.928 154.666 223.321 157.498C223.201 158.054 223.388 159.082 222.321 158.727C222.039 158.634 221.824 157.692 221.916 157.192C222.766 152.756 223.692 148.333 224.595 143.906C222.198 143.087 220.127 144.146 219.566 146.574C218.738 150.196 217.998 153.827 217.2 157.551Z" fill="white"/>
<path d="M231.055 111.835C230.97 114.361 229.494 116.336 227.067 117.053C226.109 117.388 225.128 117.649 224.131 117.833C221.063 118.254 218.608 116.541 217.765 113.422C216.948 110.384 216.13 107.341 215.411 104.278C215.203 103.382 215.181 102.453 215.347 101.549C215.878 98.7649 219.225 96.7022 223.017 96.6901C225.68 96.6901 227.788 98.5316 228.485 101.331C229.181 104.131 229.973 106.924 230.693 109.729C230.881 110.417 230.942 111.133 231.055 111.835ZM223.852 116.345C224.616 116.142 225.984 115.921 227.227 115.424C228.053 115.064 228.729 114.428 229.138 113.624C229.547 112.82 229.663 111.899 229.466 111.019C228.65 107.713 227.803 104.413 226.883 101.135C226.269 99.0041 224.278 97.8751 222.115 98.3166C221.367 98.4673 220.621 98.6482 219.888 98.8633C217.565 99.5448 216.286 101.451 216.82 103.775C217.596 107.087 218.498 110.374 219.452 113.641C220.004 115.433 221.403 116.339 223.852 116.345Z" fill="white"/>
<path d="M196.457 71.1418C197.255 70.0214 197.804 70.3405 198.408 71.1418C200.578 74.0394 202.775 76.9159 204.971 79.7949C206.153 81.3298 207.631 81.5751 208.702 80.409C209.665 79.3655 209.592 78.3645 208.435 76.8637C206.634 74.5213 204.799 72.2007 203.032 69.831C201.848 68.241 201.976 66.2396 203.244 64.9196C203.854 64.2915 204.665 63.8983 205.536 63.8091C206.407 63.7198 207.281 63.9402 208.005 64.4316C208.273 64.5802 208.512 64.7733 208.714 65.0026C211.322 68.3791 213.93 71.7956 216.58 75.2795L215.43 76.3291C215.307 76.1239 215.246 75.9853 215.157 75.8687C212.77 72.7502 210.392 69.6284 207.987 66.5251C206.953 65.1867 205.64 64.9258 204.578 65.7822C203.572 66.5926 203.548 68.0322 204.523 69.3215C206.364 71.7587 208.266 74.1592 210.045 76.6456C211.383 78.5121 211.098 80.406 209.45 81.7932C208.04 82.9873 205.794 83.0214 204.597 81.5751C201.789 78.1615 199.148 74.6135 196.457 71.1418Z" fill="white"/>
<path d="M53.8691 63.9006L55.0073 64.7018C54.9541 64.8508 54.8873 64.9947 54.8079 65.1315C52.4741 68.285 50.1353 71.4365 47.7913 74.5859C46.7604 75.9732 46.8034 77.2257 47.8986 78.076C49.0891 78.9968 50.2948 78.7114 51.4054 77.2287C53.2074 74.8161 55.0053 72.4014 56.7991 69.9846C57.2202 69.3657 57.82 68.8898 58.5183 68.6206C59.2166 68.3513 59.9803 68.3014 60.7078 68.4774C62.1221 68.7506 63.2052 69.6684 63.4046 71.0712C63.5457 72.0811 63.4046 73.3919 62.8646 74.193C60.4684 77.6709 57.876 81.0133 55.2835 84.4973L54.1513 83.6901C54.2121 83.5182 54.288 83.3516 54.3784 83.1934C56.6672 80.1236 58.9579 77.0538 61.2508 73.9842C62.432 72.4003 62.386 71.1142 61.1373 70.2608C60.0174 69.4965 58.6829 69.914 57.6336 71.3475C55.8991 73.6804 54.1605 76.0088 52.4179 78.3335C51.0404 80.1758 48.8006 80.6271 47.2022 79.433C45.3061 78.0208 44.9717 75.8566 46.3922 73.9352C48.8374 70.6322 51.3103 67.3325 53.8691 63.9006Z" fill="white"/>
<path d="M48.1227 84.7828L42.0909 97.982L47.6533 100.558L47.0397 101.767C46.9295 101.773 46.8189 101.764 46.7113 101.739C44.4871 100.726 42.2596 99.7259 40.0506 98.6696C37.0164 97.2361 35.8904 94.3723 37.182 91.2692C38.0073 89.2921 38.9032 87.343 39.8451 85.4181C41.238 82.5702 44.2447 81.4525 47.2238 82.6959C49.2947 83.5614 51.3012 84.5806 53.3599 85.4802C54.4091 85.9406 54.3078 86.4896 53.6268 87.2544C52.7064 86.8523 51.8381 86.4654 50.9576 86.0693C50.0771 85.6733 49.1904 85.2742 48.1227 84.7828ZM46.6929 84.283C44.5822 83.1964 42.4529 83.7303 41.373 85.7657C40.2362 87.9215 39.2261 90.1432 38.3479 92.4171C37.5686 94.4155 38.6209 96.4077 40.7747 97.2179C42.7485 92.9086 44.7212 88.5962 46.6929 84.283Z" fill="white"/>
<path d="M161.537 47.5489C160.393 47.2727 160.212 46.7877 160.66 45.8576C162.037 43.0121 163.335 40.1297 164.648 37.2627C165.203 36.0532 166.13 35.47 167.458 35.6143C168.71 35.7494 169.48 36.4339 169.818 37.671C170.962 41.8917 172.103 46.1124 173.327 50.3085C173.511 50.9408 174.135 51.4473 174.555 52.009C175.086 51.5732 175.831 51.2447 176.11 50.683C177.558 47.7668 178.871 44.7893 180.317 41.7074L181.519 42.0973C181.568 42.3214 181.639 42.4411 181.608 42.5117C180.2 45.5813 178.764 48.6141 177.374 51.6775C176.804 52.933 175.901 53.6605 174.527 53.5561C173.076 53.4456 172.339 52.5646 171.971 51.1403C170.883 46.9575 169.725 42.7921 168.496 38.644C168.327 38.0638 167.691 37.6188 167.268 37.1092C166.755 37.5727 166.041 37.9411 165.765 38.5151C164.316 41.465 162.96 44.4793 161.537 47.5489Z" fill="white"/>
<path d="M123.726 29.1312C124.846 28.7505 125.3 28.9961 125.281 30.009C125.254 31.4303 125.281 32.8545 125.281 34.6134H138.29C139.275 32.9467 137.676 30.5156 139.426 29.122L140.039 29.2785V42.5238L138.523 42.7049V35.9948C134.194 35.9948 130.025 35.9764 125.858 36.0408C125.595 36.0408 125.135 36.6885 125.119 37.0507C125.039 38.7268 125.082 40.412 125.082 42.2107L123.729 42.3888L123.726 29.1312Z" fill="white"/>
<path d="M159.542 32.8578L160.803 33.3305C160.242 35.8506 159.769 38.3431 159.125 40.7927C158.269 44.0495 156.041 45.5628 152.753 45.0901C150.79 44.8047 148.848 44.3862 146.942 43.8377C143.972 42.9966 142.447 40.2125 143.112 37.1705C143.57 35.0863 143.993 32.9898 144.444 30.9025C144.537 30.5612 144.651 30.226 144.785 29.8987C146.147 29.9386 146.169 29.9417 145.923 31.1695C145.497 33.3182 145.058 35.4669 144.588 37.588C144.113 39.7736 145.177 41.7565 147.301 42.3397C149.065 42.8217 150.854 43.2422 152.654 43.5492C155.523 44.0372 157.149 42.8769 157.849 39.9271C158.364 37.7538 158.815 35.5652 159.303 33.3857C159.367 33.2029 159.447 33.0262 159.542 32.8578Z" fill="white"/>
<path d="M70.0593 49.1174C71.8358 51.1403 73.6398 53.0833 75.318 55.1338C76.211 56.1809 76.6631 57.5338 76.5798 58.9078C76.4965 60.2817 75.8832 61.5698 74.8701 62.5009C73.4036 63.9129 71.8603 65.2635 70.268 66.5282C67.97 68.3699 65.0032 68.1336 62.9691 65.9849C61.3553 64.2812 59.8703 62.461 58.2872 60.7297C57.5847 59.9623 57.7687 59.5019 58.7996 59.0813C60.4287 60.8862 62.0886 62.7372 63.7637 64.5759C65.6782 66.6817 67.9608 66.7799 70.0256 64.8829C71.1884 63.8146 72.3788 62.7741 73.5692 61.7365C75.3794 60.1557 75.5757 57.7154 73.9987 55.8828C72.569 54.2221 71.1363 52.5584 69.6575 50.9408C68.9855 50.1979 68.8751 49.6546 70.0593 49.1174Z" fill="white"/>
<path d="M191.303 50.778L184.274 60.2631L183.031 59.4772L190.088 49.8571L184.047 45.4001C184.311 44.9795 184.535 44.6204 184.839 44.1416L198.295 54.0441L197.454 55.2719L191.303 50.778Z" fill="white"/>
<path d="M29.6958 145.048L31.1439 144.704L32.8129 152.047L44.3396 149.533L44.7139 150.926L33.1811 153.57C33.7211 156.068 34.2426 158.481 34.7796 160.964L33.3621 161.244C32.141 155.848 30.9353 150.518 29.6958 145.048Z" fill="white"/>
<path d="M225.791 92.8252L224.518 93.5711C223.355 91.3183 222.223 89.1171 221.017 86.775L210.505 92.0581C209.656 91.1616 209.892 90.6641 210.88 90.1795C213.988 88.6658 217.059 87.0794 220.345 85.4249C219.354 83.4508 218.437 81.5388 217.436 79.6692C216.946 78.7484 217.154 78.2691 218.262 77.9775L225.791 92.8252Z" fill="white"/>
<path d="M218.651 217.657V217.72C218.651 217.72 218.706 217.638 218.709 217.638L218.651 217.657Z" fill="white"/>
<path d="M131.021 217.309C178.64 217.309 217.243 178.706 217.243 131.086C217.243 83.4671 178.64 44.8641 131.021 44.8641C83.4013 44.8641 44.7983 83.4671 44.7983 131.086C44.7983 178.706 83.4013 217.309 131.021 217.309Z" fill="#FFF2CD"/>
<path d="M171.582 124.295C172.419 124.855 172.943 125.153 173.4 125.53C174.534 126.434 175.688 127.338 176.733 128.341C183.991 135.19 187.803 143.637 188.122 153.544C188.328 159.99 186.494 166.013 183.348 171.624C175.791 185.075 158.803 191.095 144.436 181.73C138.072 177.593 132.012 173.018 125.805 168.673C119.181 164.045 112.374 159.824 104.023 159.007C100.456 158.658 96.9255 158.805 93.6074 160.122C86.2252 163.06 81.8863 169.746 82.0741 177.675C82.1982 183.017 83.8498 187.712 88.2985 191.084C92.386 194.181 97.1103 194.169 101.883 193.648C103.477 193.473 105.035 192.949 106.61 192.587L106.52 192.102C105.871 192.192 105.223 192.273 104.574 192.376C102.995 192.629 101.405 193.165 99.8378 193.105C93.6891 192.864 88.8225 189.817 86.7681 182.86C85.0621 177.098 87.4405 169.547 92.1709 165.889C96.0865 162.858 100.466 162.273 105.166 163.581C109.745 164.849 113.82 167.161 117.617 169.909C124.105 174.592 130.43 179.491 136.896 184.198C145.745 190.638 155.6 193.06 166.446 191.104C174.352 189.676 180.861 185.798 185.882 179.596C192.974 170.837 195.767 160.737 194.246 149.654C192.531 137.034 185.815 127.468 174.8 121.139C172.124 119.6 171.467 118.184 171.673 115.273C172.118 109.171 172.039 103.033 172.163 96.9105C172.132 96.5303 172.071 96.1532 171.979 95.783H160.506V116.358C156.627 116.358 152.975 116.056 149.4 116.442C145.824 116.828 142.381 117.916 138.793 118.717C138.972 109.216 139.151 99.6039 139.335 89.7903C136.263 89.7903 133.294 89.841 130.33 89.763C129.251 89.7358 128.93 90.0644 128.918 91.1094C128.712 105.772 128.459 120.431 128.278 135.103C128.294 135.877 128.576 136.622 129.078 137.212C131.241 139.599 133.474 141.921 135.775 144.179C136.36 144.748 137.29 144.953 138.469 145.514C138.469 144.339 138.469 143.748 138.469 143.16C138.554 136.131 138.654 129.101 138.711 122.068C138.711 121.218 139.039 120.824 139.839 120.561C144.187 119.221 148.627 118.452 153.172 118.554C155.545 118.615 157.912 119.018 160.285 119.265C160.285 122.881 160.339 126.145 160.285 129.405C160.036 142.202 159.736 155 159.515 167.8C159.557 168.567 159.862 169.296 160.379 169.867C162.803 172.555 165.361 175.131 167.803 177.807C168.606 178.687 169.425 179.063 170.672 178.633C170.97 160.652 171.273 142.654 171.582 124.295ZM135.823 55.5926L135.987 56.1953C136.896 56.0084 137.832 55.8729 138.715 55.6197C142.815 54.4656 146.854 54.1312 150.976 55.7041C155.915 57.5874 160.37 63.5897 160.006 68.64C159.66 73.4431 157.582 77.499 153.688 80.4847C148.536 84.4412 142.73 84.86 136.781 83.0646C129.481 80.8618 122.235 78.4122 115.063 75.8323C107.889 73.2532 100.678 71.7978 93.05 72.5753C79.7827 73.9252 70.3616 80.7111 64.5827 92.5473C61.6159 98.6127 61.7341 105.025 63.0675 111.486C65.2524 122.101 71.6434 129.098 81.6742 133.036C87.5859 135.359 93.7194 135.685 99.9499 135.344C100.678 135.302 101.392 135.122 102.114 135.006C100.871 134.814 99.6349 135.172 98.4922 134.979C95.1832 134.422 91.8074 133.949 88.6468 132.889C78.5742 129.514 71.2828 123.282 68.9646 112.48C67.7161 106.655 67.6494 100.815 70.201 95.2711C73.4162 88.2895 78.7317 83.3115 85.7405 80.2046C90.2195 78.21 95.0105 77.1734 99.862 77.9571C104.202 78.6591 108.42 80.0872 112.705 81.142C113.865 81.4434 114.296 81.9462 114.262 83.2092C113.943 95.0992 113.672 106.991 113.447 118.883C113.375 122.68 113.447 126.476 113.447 130.484C114.317 130.33 115.087 130.327 115.741 130.053C118.296 128.99 120.796 127.802 123.35 126.738C124.417 126.295 124.866 125.717 124.887 124.505C124.984 112.808 125.144 101.111 125.302 89.4132C125.317 88.1327 125.414 86.8553 125.478 85.496C126.032 85.6225 126.387 85.677 126.714 85.7793C132.545 87.617 138.43 88.9975 144.639 88.6749C151.609 88.3137 157.4 85.7217 161.348 79.9365C167.082 71.5176 166.027 62.6406 158.015 56.4032C153.639 52.9982 148.448 52.956 143.287 53.631C140.739 53.9444 138.297 54.9086 135.817 55.5866L135.823 55.5926Z" fill="#896906"/>
<path fill-rule="evenodd" clip-rule="evenodd" d="M187.987 196.87H74.0107C81.7115 206.872 109.051 218.959 131.384 219.792C147.162 220.381 183.09 208.247 187.987 196.87Z" fill="#896906"/>
<path d="M148.048 199.28C145.711 202 143.37 204.659 140.147 206.334C139.207 206.828 138.157 207.076 137.095 207.057C134.843 207.022 132.585 207.057 130.333 207.027C129.872 207.007 129.414 207.092 128.992 207.275C128.569 207.459 128.194 207.736 127.894 208.085C126.876 209.183 125.844 210.289 124.777 211.326C124.401 211.674 123.969 211.956 123.499 212.159C123.168 212.256 122.825 212.308 122.48 212.313L122.304 212.093L125.2 206.251C124.931 206.186 124.653 206.152 124.376 206.149C124.072 206.18 123.78 206.365 123.494 206.365C121.7 206.365 120.747 207.415 120.143 208.971C119.813 209.822 119.358 210.62 118.864 211.638C118.45 210.862 118.119 210.245 117.798 209.628C117.657 209.392 117.544 209.143 117.458 208.883C116.845 206.546 114.936 206.326 113.01 206.136C112.952 206.136 112.886 206.189 112.692 206.282C112.792 206.61 112.909 206.932 113.044 207.247C113.737 208.622 114.46 209.976 115.134 211.356C115.212 211.624 115.246 211.902 115.236 212.181C114.945 212.181 114.583 212.309 114.354 212.181C113.515 211.673 112.717 211.1 111.969 210.465C111.127 209.72 110.404 208.847 109.61 208.045C109.283 207.696 108.883 207.424 108.439 207.246C107.995 207.069 107.517 206.991 107.04 207.018C105.095 207.079 103.142 206.982 101.198 207.057C99.4106 207.139 97.6463 206.627 96.1803 205.603C93.6466 203.843 91.3984 201.704 89.5137 199.262C89.7832 199.298 90.0498 199.351 90.3118 199.421C93.006 200.395 95.682 201.418 98.3937 202.344C99.2054 202.599 100.052 202.722 100.902 202.71C112.807 202.732 124.671 202.71 136.558 202.736C137.718 202.761 138.873 202.583 139.971 202.208C142.351 201.361 144.715 200.475 147.086 199.606C147.426 199.487 147.734 199.386 148.048 199.28Z" fill="white"/>
<path d="M129.107 214.654C128.494 216.947 127.136 218.657 125.751 220.35C124.654 221.578 123.874 223.055 123.481 224.654C123.23 225.871 123.269 225.933 124.504 226.263C124.698 226.316 124.897 226.342 125.201 226.4C125.373 225.386 125.536 224.407 125.695 223.428H125.924C126.365 224.869 126.832 226.307 126.488 227.864C126.312 228.653 125.721 229.129 125.095 229.566C123.772 230.483 122.194 230.711 120.712 231.21C119.387 231.668 117.944 231.652 116.63 231.166C115.281 230.689 113.923 230.218 112.635 229.614C111.348 229.01 110.968 227.881 111.149 226.528C111.237 225.4 111.553 224.302 112.08 223.3C112.233 224.297 112.388 225.299 112.547 226.307C112.645 226.345 112.75 226.367 112.856 226.373C114.412 226.1 114.5 225.963 114.134 224.424C113.693 222.537 112.477 221.087 111.357 219.575C110.527 218.455 109.778 217.273 109.051 216.087C108.84 215.634 108.682 215.157 108.579 214.667H116.991L118.878 218.195C119.416 217.203 119.919 216.404 120.28 215.55C120.38 215.228 120.592 214.953 120.878 214.774C121.163 214.596 121.504 214.527 121.837 214.58C123.953 214.641 126.069 214.58 128.19 214.601C128.49 214.614 128.794 214.641 129.107 214.654Z" fill="white"/>
<path d="M93.6061 206.929C93.3933 207.208 93.2032 207.502 93.0374 207.811C92.2923 209.421 91.5737 211.048 90.8331 212.661C90.749 212.846 90.6658 213.036 90.5643 213.213C90.3348 213.596 90.1016 213.984 89.5678 213.98C89.0339 213.975 88.8317 213.538 88.6508 213.146C87.8527 211.409 87.0765 209.659 86.2701 207.926C86.083 207.587 85.868 207.263 85.6264 206.96L85.3568 207.013C85.2872 207.314 85.2387 207.619 85.2115 207.926C85.2115 209.495 85.2115 211.07 85.2115 212.639C85.2115 213.102 85.2645 213.609 84.8192 213.931C84.2634 213.887 84.2286 213.49 84.2286 213.12C84.2286 211.242 84.1884 209.359 84.2505 207.485C84.299 207.016 84.5072 206.579 84.8412 206.246C84.9714 206.096 85.1365 205.982 85.3228 205.913C85.509 205.845 85.709 205.824 85.9051 205.855C86.1012 205.884 86.286 205.964 86.4435 206.085C86.6002 206.205 86.7244 206.364 86.8031 206.546C87.2931 207.485 87.6853 208.469 88.126 209.43C88.6023 210.479 89.0695 211.532 89.6253 212.771C89.9335 212.159 90.1584 211.744 90.3523 211.317C91.0269 209.822 91.6751 208.327 92.3498 206.824C92.4369 206.582 92.5838 206.367 92.7769 206.198C92.9692 206.028 93.2017 205.91 93.4523 205.854C94.3648 205.656 95.1008 206.246 95.1364 207.287C95.1803 208.583 95.1364 209.884 95.1364 211.18C95.1205 211.453 95.1205 211.727 95.1364 212C95.1349 212.129 95.1599 212.257 95.2091 212.377C95.2591 212.496 95.3318 212.605 95.4242 212.695C95.5158 212.786 95.6256 212.857 95.746 212.904C95.8664 212.951 95.9951 212.973 96.1238 212.97C97.6277 212.996 99.1308 213.014 100.635 212.97C101.463 212.97 101.811 212.498 101.83 211.648C101.855 210.25 102.425 209.5 103.76 209.116C104.849 208.799 105.943 208.852 107.808 209.315C107.864 209.236 107.929 209.163 108.002 209.099C108.231 208.931 108.469 208.777 108.703 208.618C108.847 208.898 108.957 209.194 109.029 209.5C109.109 210.144 109.069 210.823 109.161 211.435C109.311 212.494 109.726 212.93 110.753 212.97C112.322 213.023 113.897 213.023 115.466 212.97C116.533 212.935 116.789 212.459 116.321 211.501C116.079 210.977 115.793 210.47 115.572 209.932C115.422 209.575 115.36 209.152 115.841 208.984C116.321 208.817 116.423 209.187 116.586 209.505C117.027 210.386 117.468 211.268 117.971 212.15C118.588 213.173 119.13 213.146 119.734 212.079C120.206 211.251 120.594 210.373 121.057 209.536C121.299 209.094 121.621 208.728 122.221 209.262C121.899 209.985 121.595 210.704 121.264 211.404C120.845 212.287 121.158 212.891 122.146 213.001C122.554 213.023 122.963 213.023 123.372 213.001C124.5 213.001 125.629 213.023 126.757 213.001C127.224 212.956 127.687 212.88 128.142 212.771C128.107 212.423 128.076 212.19 128.058 211.956C127.935 210.263 128.566 209.311 130.228 209.059C131.307 208.94 132.398 208.972 133.468 209.156C133.781 209.184 134.072 209.332 134.28 209.568C134.487 209.804 134.596 210.112 134.583 210.426C134.619 211.114 134.143 211.365 133.618 211.585C132.686 211.952 131.785 212.395 130.924 212.908C131.171 212.935 131.414 212.988 131.66 212.992C133.816 212.992 135.968 212.992 138.12 212.992C139.385 212.992 140.082 212.415 140.324 211.167C140.423 210.664 140.481 210.154 140.5 209.641C140.527 209.174 140.756 208.944 141.201 208.944C142.462 208.944 143.728 208.914 144.993 208.944C145.606 208.944 145.752 209.191 145.672 209.826C145.672 209.892 145.646 209.959 145.633 210.025C145.249 211.956 145.796 212.767 147.793 212.97C148.919 213.047 150.049 213.047 151.175 212.97C151.469 212.976 151.759 212.89 152.003 212.724C152.247 212.558 152.434 212.321 152.537 212.044C152.745 211.437 152.92 210.818 153.062 210.192C153.082 209.892 153.141 209.595 153.238 209.311C153.317 209.212 153.418 209.131 153.533 209.077C153.647 209.021 153.772 208.993 153.899 208.993C154.049 208.993 154.274 209.266 154.318 209.434C154.42 209.875 154.398 210.316 154.49 210.756C154.591 211.388 154.918 211.961 155.409 212.371C155.9 212.78 156.523 212.998 157.162 212.983C158.154 212.983 159.142 212.983 160.134 212.983C160.406 212.968 160.677 212.927 160.941 212.86C161.07 212.855 161.195 212.821 161.308 212.76C161.421 212.698 161.519 212.611 161.591 212.505C161.665 212.399 161.712 212.278 161.731 212.15C161.748 212.022 161.736 211.893 161.694 211.771C161.628 211.361 161.676 210.941 161.831 210.556C161.987 210.172 162.244 209.837 162.576 209.588C162.672 209.489 162.784 209.408 162.907 209.346C164.373 208.741 166.012 208.708 167.501 209.253C168.449 209.606 168.555 210.453 167.814 211.184C167.703 211.027 167.579 210.88 167.444 210.743C167.183 210.506 166.91 210.113 166.624 210.095C165.645 210.041 164.665 210.069 163.692 210.179C163.43 210.205 163.188 210.332 163.019 210.534C162.85 210.737 162.767 210.996 162.788 211.259C162.788 211.868 162.96 212.449 163.608 212.666C164.086 212.845 164.588 212.948 165.098 212.97C167.25 213.001 169.401 212.992 171.553 212.97C172.8 212.97 173.202 212.529 173.211 211.308C173.211 209.597 173.211 207.891 173.211 206.18C173.211 205.907 173.211 205.634 173.211 205.364C173.233 204.954 173.44 204.712 173.855 204.73C174.269 204.747 174.353 205.016 174.353 205.369C174.353 206.289 174.353 207.21 174.353 208.133C174.353 208.469 174.379 208.803 174.392 209.094C175.715 209.094 176.967 209.094 178.215 209.094C178.453 209.106 178.689 209.155 178.911 209.24C179.182 209.293 179.428 209.433 179.612 209.639C179.795 209.845 179.906 210.107 179.926 210.382C179.959 210.673 179.906 210.968 179.773 211.23C179.641 211.492 179.435 211.708 179.181 211.854C178.908 212.026 178.611 212.163 178.211 212.374C178.962 212.847 179.849 213.059 180.732 212.979C181.614 213.024 182.497 213.024 183.378 212.979C184.185 212.849 184.983 212.669 185.767 212.441C185.688 213.376 185.159 213.936 184.277 213.958C182.503 214.048 180.726 214.048 178.951 213.958C178.118 213.891 177.298 213.389 176.526 212.983C176.226 212.764 176.004 212.455 175.891 212.101C175.667 211.563 175.891 211.242 176.46 211.193C176.901 211.158 177.342 211.193 177.783 211.193C178.224 211.193 178.611 211.145 178.788 210.572C178.608 210.457 178.427 210.245 178.228 210.232C177.317 210.124 176.398 210.089 175.481 210.126C174.626 210.188 174.339 210.625 174.317 211.501C174.317 212.084 174.344 212.666 174.317 213.243C174.26 213.891 174.084 213.94 173.387 213.847C173 213.876 172.614 213.927 172.232 213.997C169.565 213.997 166.902 213.997 164.234 213.997C163.964 213.99 163.699 213.933 163.45 213.83C162.797 213.561 162.161 213.389 161.531 213.883C159.499 213.883 157.453 213.949 155.434 213.763C154.825 213.706 154.283 212.882 153.67 212.393C153.706 212.393 153.609 212.393 153.587 212.423C153.013 213.663 152.074 214.147 150.699 214.015C149.613 213.913 148.494 214.015 147.423 214.015C147.038 214.025 146.656 213.958 146.298 213.818C145.94 213.678 145.614 213.468 145.338 213.201C145.063 212.933 144.843 212.612 144.693 212.259C144.543 211.905 144.465 211.525 144.464 211.14C144.464 210.805 144.42 210.47 144.385 209.989C143.547 209.989 142.776 209.989 142.004 209.989C141.563 209.989 141.519 210.373 141.426 210.708C141.284 211.338 141.087 211.954 140.84 212.551C140.646 213.011 140.313 213.4 139.888 213.662C139.463 213.924 138.966 214.048 138.468 214.015C135.734 213.988 132.992 214.116 130.267 213.962C129.116 213.889 127.961 213.889 126.81 213.962C125.139 214.05 123.463 214.041 121.793 213.936C121.242 213.905 120.717 213.494 120.126 213.243C118.958 214.253 118.605 214.258 117.203 213.182C116.529 213.922 115.656 214.037 114.695 213.997C113.464 213.944 112.23 213.936 111.004 213.997C109.937 214.05 109.051 213.803 108.408 212.917C106.441 214.438 104.413 214.24 102.297 213.261C101.631 213.931 100.785 214.024 99.863 213.988C98.6689 213.924 97.4725 213.924 96.2783 213.988C94.9994 214.077 94.1793 213.261 94.1354 211.934C94.096 210.704 94.1354 209.474 94.1043 208.244C94.068 207.826 94.0081 207.411 93.9241 207L93.6061 206.929ZM105.29 213.058C105.819 212.952 106.318 212.882 106.807 212.754C107.098 212.714 107.362 212.565 107.544 212.335C107.728 212.106 107.815 211.816 107.79 211.524C107.818 211.236 107.744 210.947 107.584 210.706C107.423 210.465 107.185 210.287 106.908 210.201C105.937 209.862 104.881 209.862 103.91 210.201C103.099 210.434 102.887 210.668 102.878 211.365C102.831 211.672 102.904 211.985 103.081 212.24C103.258 212.496 103.526 212.674 103.831 212.736C104.298 212.86 104.801 212.93 105.29 213.041V213.058ZM133.671 210.518C133.23 210.236 133.049 210.025 132.833 209.989C131.823 209.797 130.779 209.895 129.822 210.272C129.055 210.589 128.94 211.277 129.531 212.19L133.671 210.518Z" fill="white"/>
<path d="M73.0424 199.976H74.18C75.4718 199.976 75.8552 200.365 75.8688 201.691C75.8688 202.102 75.8688 202.512 75.8688 202.922C75.856 203.025 75.8681 203.13 75.9021 203.228C75.9362 203.326 75.993 203.416 76.0665 203.488C76.1407 203.562 76.2308 203.617 76.3292 203.65C76.4277 203.684 76.5329 203.694 76.6359 203.68C76.7306 203.681 76.8252 203.663 76.9123 203.625C76.9994 203.586 77.0774 203.53 77.141 203.46C77.2053 203.389 77.253 203.306 77.2826 203.216C77.3113 203.125 77.3212 203.03 77.3106 202.935C77.3106 202.252 77.3106 201.568 77.3106 200.89C77.3386 200.592 77.3901 200.297 77.4643 200.007H77.7119C77.7778 200.175 77.8232 200.35 77.8482 200.528C77.8482 201.14 77.8482 201.758 77.8482 202.371C77.8482 203.597 78.5055 204.042 79.6996 203.658C79.8829 203.608 80.0419 203.494 80.1487 203.338C80.2547 203.181 80.3024 202.991 80.2819 202.803C80.2819 202.119 80.2819 201.436 80.2819 200.753C80.3047 200.508 80.344 200.265 80.4008 200.025H80.6083C80.6924 200.178 80.7514 200.343 80.7847 200.515C80.8241 201.128 80.8241 201.744 80.7847 202.358C80.7226 203.058 80.7847 203.653 81.8342 203.94L80.8461 204.324C80.8461 204.642 80.8196 205.007 80.7893 205.373C80.7575 205.712 80.6166 206.032 80.388 206.284C80.1585 206.536 79.8541 206.707 79.5194 206.771C78.5009 206.89 77.5703 206.502 77.3636 205.818C77.3333 205.483 77.3477 205.145 77.4075 204.814C77.8217 205.409 78.0072 205.946 78.3684 206.136C78.825 206.28 79.3142 206.28 79.7708 206.136C80.2956 206.017 80.3743 205.448 80.132 204.227C79.2854 204.125 78.3684 204.531 77.6104 203.728C76.9706 204.271 76.3315 204.495 75.6834 203.769C74.6914 204.355 73.7038 204.509 72.672 203.769C72.5152 203.87 72.3517 203.962 72.1827 204.042C71.9885 204.107 71.7817 204.127 71.5786 204.099C72.7117 203.345 72.3899 202.234 72.4119 201.22C72.4119 200.506 72.4119 199.787 72.4119 199.073C72.4362 198.828 72.4819 198.586 72.5486 198.35H72.7999C72.919 198.826 72.9719 199.298 73.0424 199.976ZM72.9719 200.568C72.9719 201.427 72.9719 202.238 72.9719 203.045C72.9719 203.217 73.1218 203.522 73.2276 203.535C73.7809 203.644 74.348 203.663 74.9075 203.592C75.4497 203.482 75.3483 202.917 75.3483 202.477C75.41 200.316 75.313 200.25 72.9719 200.568Z" fill="white"/>
<path d="M153.858 205.854C154.119 206.242 154.419 206.498 154.375 206.665C154.338 206.816 154.27 206.959 154.173 207.081C154.076 207.203 153.954 207.301 153.814 207.371C153.73 207.393 153.642 207.394 153.558 207.371C153.474 207.349 153.397 207.304 153.336 207.242C153.275 207.18 153.231 207.103 153.21 207.019C153.189 206.935 153.19 206.846 153.215 206.762C153.263 206.489 153.558 206.259 153.858 205.854Z" fill="white"/>
</g>
<defs>
<clipPath id="clip0_107_8">
<rect width="262" height="262" fill="white"/>
</clipPath>
</defs>
</svg>
