<svg xmlns="http://www.w3.org/2000/svg" xmlns:xlink="http://www.w3.org/1999/xlink" xmlns:serif="http://www.serif.com/" width="100%" height="100%" viewBox="0 0 180 60" xml:space="preserve" style="fill-rule:evenodd;clip-rule:evenodd;stroke-linejoin:round;stroke-miterlimit:2;">    <g id="Capa-1-copia-2" serif:id="Capa 1 copia 2" transform="matrix(0.156519,0,0,0.156519,36.1753,-25.0508)">        <g transform="matrix(1,0,0,1,103.046,183.283)">            <path d="M0,237.731C-0.167,237.718 -0.29,237.715 -0.384,237.713C-0.791,237.705 -1.549,237.687 -2.342,237.169C-23.556,223.246 -39.18,209.267 -51.513,193.176C-62.217,179.21 -68.885,165.332 -71.896,150.747C-76.384,129.009 -72.408,108.092 -60.081,88.577C-51.006,74.211 -38.216,61.558 -20.979,49.895C-2.184,37.176 19.776,26.973 46.156,18.703C67.116,12.131 89.189,7.374 113.635,4.157C134.64,1.393 156.431,-0.009 178.402,-0.009C184.653,-0.009 191.036,0.104 197.374,0.328C236.724,1.714 275.324,7.197 312.104,16.624C312.469,16.718 312.826,16.833 313.184,16.95L313.556,17.07C314.793,17.456 315.643,18.593 315.662,19.89C315.681,21.211 315.142,22.041 314.685,22.503C314.071,23.126 313.246,23.468 312.36,23.468C311.835,23.468 311.388,23.345 311.061,23.227L304.951,22.26C300.13,21.496 295.309,20.732 290.483,19.992C279.53,18.31 267.814,16.985 253.612,15.822C239.089,14.632 224.957,14.029 211.609,14.029C207.429,14.029 203.235,14.088 199.145,14.204C146.411,15.696 100.165,24.835 57.764,42.145C34.372,51.693 14.922,62.948 -1.7,76.551C-16.712,88.835 -27.491,101.673 -34.652,115.798C-40.755,127.833 -43.571,140.289 -43.024,152.821C-42.616,162.169 -40.539,170.918 -36.851,178.826C-29.702,194.152 -23.078,205.159 -15.374,214.515C-11.023,219.798 -6.145,224.885 -0.457,230.067L2.246,232.516C3.197,233.377 3.495,234.748 2.988,235.926C2.512,237.033 1.424,237.74 0.233,237.74C0.156,237.74 0.078,237.737 0,237.731" style="fill:white;fill-rule:nonzero;"></path>        </g>        <g transform="matrix(1,0,0,1,281.456,424.023)">            <path d="M0,-243.749L0,-237.749L-0.002,-243.749C-22.111,-243.749 -44.035,-242.339 -65.167,-239.558C-89.786,-236.318 -112.024,-231.523 -133.151,-224.899C-159.813,-216.541 -182.03,-206.214 -201.07,-193.33C-218.657,-181.43 -231.727,-168.488 -241.027,-153.766C-253.783,-133.572 -257.894,-111.912 -253.244,-89.387C-250.139,-74.35 -243.29,-60.072 -232.304,-45.739C-219.758,-29.371 -203.901,-15.176 -182.4,-1.064C-180.887,-0.072 -179.415,-0.039 -178.86,-0.027C-178.807,-0.026 -178.737,-0.025 -178.642,-0.019C-178.486,-0.006 -178.33,0 -178.176,0C-175.795,0 -173.62,-1.414 -172.667,-3.627C-171.652,-5.983 -172.248,-8.725 -174.149,-10.447L-175.173,-11.373C-175.788,-11.93 -176.318,-12.409 -176.846,-12.891C-182.429,-17.977 -187.211,-22.962 -191.468,-28.131C-199.005,-37.285 -205.505,-48.095 -212.542,-63.183C-216.062,-70.73 -218.045,-79.097 -218.437,-88.05C-218.969,-100.229 -216.335,-111.853 -210.387,-123.584C-203.417,-137.33 -192.893,-149.853 -178.211,-161.867C-161.823,-175.278 -142.623,-186.384 -119.512,-195.818C-77.45,-212.988 -31.547,-222.056 20.819,-223.538C24.885,-223.653 29.051,-223.711 33.202,-223.711C46.469,-223.711 60.517,-223.111 74.958,-221.928C89.088,-220.771 100.737,-219.454 111.618,-217.783C116.413,-217.047 121.292,-216.274 126.011,-215.526C127.986,-215.213 129.961,-214.9 131.936,-214.589C132.458,-214.425 133.146,-214.271 133.951,-214.271C135.646,-214.271 137.23,-214.932 138.411,-216.13C139.114,-216.843 140.288,-218.409 140.251,-220.892C140.214,-223.485 138.515,-225.761 136.04,-226.534L135.708,-226.641C135.362,-226.754 134.93,-226.896 134.439,-227.022C97.45,-236.503 58.634,-242.017 19.07,-243.411C12.698,-243.635 6.281,-243.749 0,-243.749M-0.005,-237.749C6.28,-237.749 12.565,-237.636 18.859,-237.415C57.436,-236.056 95.494,-230.811 132.95,-221.209C133.389,-221.097 133.819,-220.942 134.252,-220.806C134.258,-220.395 134.133,-220.271 133.951,-220.271C133.807,-220.271 133.626,-220.35 133.448,-220.425C126.475,-221.522 119.505,-222.643 112.528,-223.714C100.222,-225.603 87.847,-226.893 75.447,-227.908C61.384,-229.06 47.299,-229.711 33.202,-229.711C29.018,-229.711 24.836,-229.654 20.649,-229.535C-28.344,-228.148 -76.081,-220.028 -121.78,-201.373C-143.396,-192.549 -163.78,-181.43 -182.011,-166.511C-195.734,-155.28 -207.584,-142.379 -215.738,-126.298C-221.857,-114.23 -225.027,-101.441 -224.431,-87.788C-224.017,-78.313 -221.958,-69.176 -217.979,-60.646C-211.97,-47.761 -205.16,-35.32 -196.1,-24.317C-191.423,-18.638 -186.308,-13.395 -180.887,-8.455C-180.084,-7.724 -179.277,-6.996 -178.178,-6C-178.782,-6.047 -178.985,-6.001 -179.108,-6.081C-197.365,-18.063 -214.089,-31.838 -227.542,-49.389C-236.978,-61.7 -244.184,-75.177 -247.368,-90.6C-251.826,-112.194 -247.588,-132.145 -235.955,-150.561C-226.094,-166.171 -212.748,-178.184 -197.708,-188.361C-177.208,-202.232 -154.774,-211.832 -131.356,-219.174C-109.465,-226.038 -87.092,-230.621 -64.384,-233.609C-42.986,-236.425 -21.521,-237.749 -0.005,-237.749" style="fill:white;fill-rule:nonzero;"></path>        </g>        <g transform="matrix(1,0,0,1,558.014,321.072)">            <path d="M0,144.956C-0.44,144.956 -0.87,144.88 -1.278,144.732C-8.643,144.049 -18.168,142.811 -27.521,139.451C-55.249,129.491 -74.558,111.172 -84.913,85.001C-85.331,83.942 -85.663,82.888 -85.984,81.867C-86.123,81.425 -86.263,80.982 -86.408,80.542C-86.751,79.508 -86.506,78.368 -85.768,77.566C-84.779,76.493 -83.465,75.949 -81.861,75.949C-81.597,75.949 -81.329,75.963 -81.063,75.978C-80.92,75.987 -80.777,75.998 -80.638,75.998C-77.749,75.991 -74.865,75.976 -71.981,75.96C-68.265,75.939 -64.549,75.919 -60.833,75.919C-55.728,75.919 -51.496,75.958 -47.518,76.041C-46.979,76.052 -46.44,76.058 -45.904,76.058C-38.66,76.058 -31.629,75.061 -24.409,73.012C-13.174,69.821 -3.995,65.553 3.65,59.961C15.988,50.937 24.038,38.672 28.261,22.464C29.706,16.918 30.475,11.299 31.183,4.568L31.205,4.313C31.258,3.65 31.337,2.648 31.961,1.612C32.253,1.126 32.678,0.732 33.185,0.478C33.815,0.161 34.46,0 35.101,0C37.436,0 38.425,1.911 38.75,2.538L38.831,2.691C43.13,10.247 46.626,18.372 49.224,26.841C51.325,33.694 52.7,40.618 53.31,47.422C54.566,61.453 52.703,75.305 47.769,88.593C43.321,100.567 36.624,111.54 27.294,122.139C20.275,130.112 12.043,137.369 2.128,144.323C1.945,144.451 1.75,144.559 1.544,144.643C1.037,144.851 0.518,144.956 0,144.956" style="fill:white;fill-rule:nonzero;"></path>        </g>        <g transform="matrix(1,0,0,1,593.114,469.028)">            <path d="M0,-150.956L-0.002,-150.956C-1.113,-150.956 -2.21,-150.688 -3.262,-150.16C-4.277,-149.65 -5.127,-148.863 -5.712,-147.889C-6.697,-146.25 -6.825,-144.653 -6.887,-143.885L-6.902,-143.701C-7.596,-137.107 -8.345,-131.616 -9.742,-126.249C-13.783,-110.737 -21.464,-99.016 -33.221,-90.417C-40.574,-85.039 -49.441,-80.922 -60.329,-77.83C-67.278,-75.857 -74.041,-74.898 -81.003,-74.898C-81.52,-74.898 -82.037,-74.903 -82.555,-74.915C-86.554,-74.998 -90.802,-75.037 -95.925,-75.037C-99.651,-75.037 -103.378,-75.017 -107.104,-74.996C-109.983,-74.98 -112.862,-74.964 -115.74,-74.958C-115.811,-74.96 -115.897,-74.967 -115.984,-74.972C-116.311,-74.991 -116.638,-75.007 -116.963,-75.007C-120.046,-75.007 -121.988,-73.602 -123.074,-72.424C-124.552,-70.819 -125.043,-68.539 -124.356,-66.469C-124.215,-66.042 -124.08,-65.613 -123.945,-65.185C-123.608,-64.114 -123.261,-63.008 -122.803,-61.851C-112.117,-34.844 -92.211,-15.946 -63.637,-5.682C-54.106,-2.259 -44.483,-0.975 -36.99,-0.268C-36.382,-0.091 -35.747,0 -35.101,0C-34.188,0 -33.285,-0.182 -32.414,-0.54C-32.004,-0.708 -31.613,-0.922 -31.25,-1.177C-21.139,-8.269 -12.733,-15.682 -5.555,-23.836C4.022,-34.716 10.902,-45.995 15.479,-58.318C20.57,-72.027 22.494,-86.321 21.197,-100.802C20.568,-107.812 19.153,-114.943 16.991,-121.994C14.33,-130.671 10.746,-138.999 6.339,-146.746L6.315,-146.793C4.442,-150.415 1.555,-150.956 0,-150.956M-0.001,-144.956C0.614,-144.956 0.847,-144.265 1.123,-143.779C5.367,-136.32 8.732,-128.461 11.255,-120.235C13.252,-113.724 14.612,-107.059 15.221,-100.267C16.448,-86.57 14.631,-73.268 9.854,-60.407C5.325,-48.21 -1.525,-37.493 -10.059,-27.801C-17.379,-19.485 -25.696,-12.401 -34.695,-6.089C-34.832,-6.033 -34.968,-6 -35.101,-6C-35.263,-6 -35.421,-6.049 -35.574,-6.163C-44.429,-6.965 -53.186,-8.303 -61.608,-11.329C-87.647,-20.682 -106.769,-37.634 -117.224,-64.059C-117.778,-65.46 -118.186,-66.923 -118.661,-68.357C-118.163,-68.898 -117.571,-69.007 -116.963,-69.007C-116.554,-69.007 -116.138,-68.958 -115.737,-68.958L-115.728,-68.958C-109.127,-68.973 -102.525,-69.037 -95.925,-69.037C-91.509,-69.037 -87.095,-69.008 -82.681,-68.916C-82.12,-68.904 -81.562,-68.898 -81.003,-68.898C-73.406,-68.898 -66.011,-69.98 -58.69,-72.059C-48.311,-75.006 -38.475,-79.141 -29.679,-85.574C-16.314,-95.349 -8.121,-108.674 -3.937,-124.736C-2.368,-130.757 -1.584,-136.902 -0.936,-143.074C-0.873,-143.663 -0.889,-144.267 -0.569,-144.798C-0.349,-144.909 -0.161,-144.956 -0.001,-144.956" style="fill:white;fill-rule:nonzero;"></path>        </g>        <g transform="matrix(1,0,0,1,634.999,193.909)">            <path d="M0,239.434C-1.285,239.434 -2.943,238.672 -3.39,236.526C-3.441,236.275 -3.461,236.018 -3.448,235.762C-3.37,234.232 -2.734,233.06 -2.27,232.204L-2.056,231.803C2.115,223.719 4.791,214.953 5.899,205.747C7.048,196.209 6.203,186.606 3.318,176.387C-0.558,162.663 -7.674,149.658 -18.437,136.631C-27.125,126.116 -37.558,116.25 -50.331,106.47C-50.436,106.389 -50.536,106.302 -50.63,106.208C-50.884,105.953 -51.126,105.758 -51.368,105.611C-51.425,105.578 -51.479,105.541 -51.534,105.504C-52.462,104.857 -53.275,104.155 -54.063,103.476C-55.099,102.581 -56.077,101.736 -57.115,101.215C-57.394,101.075 -57.647,100.893 -57.87,100.676C-58.75,99.812 -59.225,98.816 -59.57,98.088L-59.615,97.994C-62.596,91.75 -67.629,87.115 -75,83.825C-81.704,80.832 -89.035,79.601 -96.585,78.507C-96.807,78.475 -97.026,78.431 -97.247,78.386C-97.376,78.359 -97.593,78.305 -97.717,78.262C-97.765,78.245 -97.892,78.217 -98.207,78.217C-98.371,78.217 -98.535,78.223 -98.7,78.23C-98.742,78.232 -99.189,78.234 -99.189,78.234C-100.06,78.234 -100.994,78.217 -102.006,78.012C-102.109,77.991 -102.212,77.964 -102.313,77.932C-102.565,77.852 -102.88,77.817 -103.335,77.817C-103.657,77.817 -103.98,77.833 -104.304,77.849L-104.963,77.877L-105.948,77.892C-106.374,77.899 -106.799,77.907 -107.224,77.907C-108.032,77.907 -108.701,77.879 -109.328,77.819L-109.398,77.821C-113.167,77.797 -113.528,74.716 -113.563,74.099C-113.622,73.031 -113.112,72.053 -112.288,71.475C-101.358,54.204 -88.865,33.584 -78.927,11.479C-77.974,9.36 -77.071,7.246 -76.115,5.007C-75.666,3.955 -75.212,2.89 -74.745,1.811C-74.272,0.716 -73.196,0.005 -72.004,0L-71.991,0C-70.804,0 -69.728,0.7 -69.247,1.787C-68.616,3.216 -67.998,4.632 -67.386,6.036C-66.055,9.086 -64.799,11.967 -63.456,14.858C-53.17,37.026 -40.24,58.061 -27.801,77.49C-23.988,83.444 -20.045,89.461 -16.23,95.281C-9.065,106.213 -1.655,117.518 5.232,128.937C6.128,130.423 7.045,131.896 7.963,133.369C11.678,139.335 15.519,145.505 17.942,152.517C28.716,183.68 23.507,212.547 2.46,238.317C2.021,238.856 1.406,239.225 0.724,239.362C0.482,239.41 0.238,239.434 0,239.434" style="fill:white;fill-rule:nonzero;"></path>        </g>        <g transform="matrix(1,0,0,1,563.008,436.343)">            <path d="M0,-245.434L-0.026,-245.434C-2.411,-245.424 -4.563,-244.002 -5.509,-241.812C-5.975,-240.733 -6.429,-239.67 -6.878,-238.618C-7.829,-236.388 -8.729,-234.282 -9.672,-232.185C-19.452,-210.43 -31.756,-190.08 -42.568,-172.981C-43.889,-171.802 -44.672,-170.057 -44.567,-168.169C-44.394,-165.038 -42.093,-161.655 -37.453,-161.614C-36.779,-161.555 -36.067,-161.527 -35.231,-161.527C-34.789,-161.527 -34.347,-161.535 -33.904,-161.543C-33.612,-161.548 -33.319,-161.554 -33.026,-161.556C-32.976,-161.556 -32.925,-161.558 -32.874,-161.559C-32.639,-161.567 -32.403,-161.578 -32.169,-161.589C-31.893,-161.601 -31.617,-161.617 -31.342,-161.617C-31.232,-161.617 -31.164,-161.614 -31.126,-161.611C-30.957,-161.561 -30.786,-161.518 -30.613,-161.483C-29.326,-161.222 -28.177,-161.2 -27.201,-161.2L-26.926,-161.201L-26.829,-161.201C-26.744,-161.201 -26.659,-161.203 -26.575,-161.206C-26.488,-161.21 -26.402,-161.214 -26.315,-161.216C-26.193,-161.183 -26.07,-161.154 -25.946,-161.128L-25.872,-161.113C-25.591,-161.054 -25.309,-160.999 -25.024,-160.958C-17.412,-159.854 -10.593,-158.709 -4.231,-155.87C2.555,-152.841 6.972,-148.798 9.669,-143.146L9.714,-143.053C10.131,-142.177 10.762,-140.852 12.019,-139.618C12.464,-139.182 12.974,-138.817 13.53,-138.538C14.236,-138.184 15.04,-137.49 15.971,-136.686C16.774,-135.992 17.686,-135.205 18.74,-134.47C18.849,-134.394 18.96,-134.322 19.073,-134.253C19.073,-134.253 19.13,-134.215 19.241,-134.104C19.429,-133.917 19.627,-133.743 19.837,-133.582C32.427,-123.943 42.699,-114.231 51.242,-103.892C61.734,-91.192 68.662,-78.547 72.422,-65.231C75.198,-55.401 76.013,-46.182 74.912,-37.045C73.847,-28.194 71.275,-19.77 67.27,-12.007C67.21,-11.892 67.147,-11.776 67.085,-11.662C66.552,-10.68 65.66,-9.036 65.547,-6.827C65.521,-6.315 65.56,-5.803 65.664,-5.302C66.423,-1.64 69.389,0 71.99,0C72.429,0 72.872,-0.045 73.309,-0.133C74.671,-0.406 75.896,-1.143 76.775,-2.22C98.523,-28.849 103.904,-58.684 92.77,-90.897C90.235,-98.228 86.303,-104.543 82.5,-110.65C81.603,-112.093 80.673,-113.585 79.792,-115.046C72.874,-126.517 65.447,-137.848 58.265,-148.806C54.456,-154.616 50.519,-160.624 46.717,-166.562C34.334,-185.902 21.467,-206.833 11.256,-228.839C9.929,-231.699 8.679,-234.563 7.355,-237.597C6.741,-239.006 6.121,-240.426 5.487,-241.86C4.527,-244.033 2.375,-245.434 0,-245.434M0,-239.434C1.981,-234.951 3.825,-230.597 5.812,-226.313C16.03,-204.295 28.63,-183.684 41.664,-163.327C52.639,-146.186 64.133,-129.392 74.654,-111.948C79.16,-104.477 84.205,-97.308 87.099,-88.937C97.659,-58.385 92.367,-30.797 72.128,-6.016C72.078,-6.005 72.032,-6 71.99,-6C71.697,-6 71.598,-6.234 71.539,-6.519C71.592,-7.552 72.154,-8.389 72.602,-9.256C76.991,-17.764 79.721,-26.794 80.869,-36.328C82.118,-46.7 81.016,-56.878 78.196,-66.862C73.858,-82.225 65.904,-95.565 55.867,-107.713C46.308,-119.283 35.322,-129.282 23.484,-138.346C23.086,-138.745 22.654,-139.101 22.172,-139.392C20.131,-140.815 18.478,-142.768 16.221,-143.901C15.695,-144.416 15.395,-145.08 15.084,-145.731C11.504,-153.23 5.564,-158.068 -1.786,-161.349C-8.93,-164.538 -16.527,-165.788 -24.163,-166.896C-24.355,-166.924 -24.545,-166.965 -24.736,-167.005C-25.22,-167.174 -25.715,-167.218 -26.214,-167.218C-26.423,-167.218 -26.632,-167.21 -26.841,-167.201C-26.961,-167.201 -27.081,-167.2 -27.201,-167.2C-27.944,-167.2 -28.686,-167.214 -29.42,-167.363C-30.055,-167.563 -30.697,-167.617 -31.342,-167.617C-31.917,-167.617 -32.494,-167.575 -33.07,-167.556C-33.79,-167.551 -34.512,-167.527 -35.231,-167.527C-35.84,-167.527 -36.446,-167.544 -37.051,-167.602C-37.633,-167.658 -38.517,-167.426 -38.576,-168.501C-38.204,-168.553 -38.074,-168.862 -37.898,-169.139C-25.528,-188.678 -13.723,-208.543 -4.199,-229.725C-2.778,-232.885 -1.445,-236.086 0,-239.434" style="fill:white;fill-rule:nonzero;"></path>        </g>        <g transform="matrix(1,0,0,1,563.565,294.472)">            <path d="M0,171.96C-1.286,171.96 -2.572,171.939 -3.86,171.899L-4.011,171.896C-4.769,171.881 -6.783,171.844 -8.032,169.904C-8.89,168.575 -8.566,166.809 -7.296,165.868C-0.867,161.109 6.607,155.302 13.303,148.306C27.139,133.848 35.714,118.479 39.52,101.319C43.384,83.895 41.932,66.608 35.082,48.471C32.617,41.941 29.95,36.356 26.936,31.409C25.483,29.904 25.585,28.067 25.636,27.143C25.644,27.012 25.652,26.882 25.651,26.756L25.646,25.393C25.641,22.224 25.635,19.231 24.998,16.341C24.24,12.909 23.029,9.98 21.295,7.387L21.138,7.155C20.649,6.44 19.98,5.462 19.768,4.079C19.747,3.944 19.735,3.809 19.732,3.672C19.718,2.754 20.008,1.885 20.573,1.159C21.164,0.399 22.049,0 22.943,0C23.573,0 24.208,0.197 24.749,0.606C47.754,17.967 63.336,35.471 73.786,55.691C80.432,68.553 83.956,81.856 84.261,95.236C84.565,108.562 81.575,121.543 75.373,133.821L73.995,136.537C73.731,137.413 73.325,138.109 72.989,138.685C72.925,138.795 72.851,138.906 72.772,139.008C72.303,139.616 71.875,140.35 71.423,141.125C70.38,142.912 69.198,144.938 66.988,146.395C66.641,146.625 66.267,146.927 65.871,147.247L65.719,147.37C65.314,148.047 64.805,148.673 64.173,149.266C64.141,149.296 64.107,149.326 64.073,149.356C58.66,154.003 52.465,158.004 45.134,161.587C36.831,165.645 27.837,168.592 18.402,170.348C12.569,171.433 6.55,171.96 0,171.96" style="fill:white;fill-rule:nonzero;"></path>        </g>        <g transform="matrix(1,0,0,1,586.511,469.432)">            <path d="M0,-177.96C-1.784,-177.96 -3.549,-177.167 -4.731,-175.655C-5.722,-174.388 -6.234,-172.867 -6.213,-171.259C-6.209,-170.977 -6.186,-170.696 -6.143,-170.418C-5.823,-168.363 -4.858,-166.952 -4.282,-166.109L-4.144,-165.905C-2.62,-163.627 -1.552,-161.032 -0.877,-157.973C-0.31,-155.401 -0.305,-152.567 -0.299,-149.567C-0.298,-149.106 -0.297,-148.646 -0.294,-148.186C-0.295,-148.133 -0.301,-148.058 -0.305,-147.982C-0.36,-146.969 -0.517,-144.133 1.579,-141.741C4.434,-137.019 6.972,-131.675 9.33,-125.429C15.967,-107.854 17.378,-91.126 13.645,-74.29C9.962,-57.682 1.635,-42.779 -11.811,-28.729C-18.349,-21.896 -25.698,-16.187 -32.026,-11.502C-34.568,-9.621 -35.213,-6.088 -33.499,-3.43C-32.096,-1.252 -29.913,-0.12 -27.013,-0.064L-26.899,-0.062C-25.568,-0.021 -24.238,0 -22.947,0C-16.21,0 -10.011,-0.543 -3.994,-1.663C5.707,-3.467 14.959,-6.501 23.506,-10.678C31.066,-14.374 37.47,-18.511 43.082,-23.328C43.15,-23.386 43.218,-23.447 43.283,-23.508C43.96,-24.144 44.546,-24.832 45.037,-25.562C45.288,-25.764 45.519,-25.944 45.695,-26.061C48.491,-27.905 49.98,-30.459 51.069,-32.324C51.472,-33.013 51.852,-33.666 52.203,-34.122C52.358,-34.323 52.501,-34.535 52.63,-34.753C52.979,-35.351 53.471,-36.192 53.834,-37.279L54.04,-37.685C54.396,-38.385 54.752,-39.085 55.105,-39.786C61.532,-52.508 64.631,-65.968 64.315,-79.792C63.999,-93.631 60.362,-107.377 53.506,-120.645C42.843,-141.278 26.988,-159.106 3.61,-176.749C2.529,-177.565 1.26,-177.96 0,-177.96M-0.004,-171.96C19.569,-157.188 36.686,-140.124 48.176,-117.89C54.353,-105.937 58.007,-93.23 58.316,-79.655C58.616,-66.529 55.641,-54.153 49.75,-42.491C49.247,-41.495 48.74,-40.501 48.235,-39.505C48.09,-38.877 47.771,-38.331 47.451,-37.785C45.741,-35.566 44.864,-32.701 42.392,-31.07C41.703,-30.616 41.078,-30.063 40.424,-29.555C40.121,-28.909 39.688,-28.365 39.174,-27.88C33.599,-23.096 27.416,-19.267 20.871,-16.069C12.608,-12.03 3.93,-9.24 -5.092,-7.562C-11.006,-6.461 -16.961,-6 -22.947,-6C-24.201,-6 -25.456,-6.02 -26.713,-6.059C-27.345,-6.079 -28.031,-6.021 -28.456,-6.68C-21.06,-12.156 -13.876,-17.892 -7.476,-24.581C5.669,-38.315 15.308,-54.074 19.502,-72.991C23.645,-91.671 21.639,-109.817 14.943,-127.548C12.594,-133.773 9.827,-139.8 6.338,-145.461C5.417,-146.21 5.712,-147.276 5.706,-148.223C5.684,-151.919 5.787,-155.614 4.982,-159.265C4.19,-162.853 2.88,-166.196 0.844,-169.241C0.409,-169.891 -0.087,-170.521 -0.214,-171.338C-0.217,-171.57 -0.146,-171.778 -0.004,-171.96" style="fill:white;fill-rule:nonzero;"></path>        </g>        <g transform="matrix(1,0,0,1,419.982,437.976)">            <path d="M0,82.19C-9.357,82.19 -18.951,81.884 -28.513,81.283C-44.898,80.252 -59.647,78.559 -73.603,76.111C-74.488,75.956 -75.258,75.411 -75.699,74.627C-76.14,73.842 -76.206,72.902 -75.878,72.064C-75.276,70.524 -73.98,69.605 -72.412,69.605C-71.872,69.605 -71.428,69.719 -71.163,69.788C-71.161,69.789 -71.266,69.785 -71.332,69.782C-61.202,70.479 -50.508,71.159 -39.776,71.216C-39.037,71.22 -38.296,71.222 -37.558,71.222C-19.337,71.222 -1.451,69.992 15.602,67.564C42.743,63.699 67.085,57.255 90.019,47.866C105.825,41.394 120.408,33.48 133.362,24.343C133.887,23.972 134.391,23.57 134.896,23.169C135.17,22.95 135.444,22.732 135.722,22.518C136.071,22.247 136.477,22.057 136.908,21.961L137.42,21.848C137.634,21.8 137.854,21.776 138.072,21.776C138.116,21.776 138.16,21.777 138.204,21.779C139.859,21.851 141.525,21.888 143.154,21.888C165.091,21.888 184.965,15.172 202.226,1.927C202.612,1.631 203.001,1.342 203.39,1.053L203.97,0.621C204.319,0.359 204.723,0.176 205.15,0.086C205.424,0.029 205.696,0 205.961,0C206.979,0 207.922,0.439 208.545,1.205C208.921,1.666 209.506,2.66 209.2,4.136C209.114,4.553 208.939,4.947 208.689,5.292C202.299,14.084 194.291,22.197 184.21,30.097C165.967,44.395 144.083,55.671 117.31,64.571C96.89,71.359 75.329,76.1 51.396,79.065C34.654,81.138 17.362,82.19 0,82.19" style="fill:white;fill-rule:nonzero;"></path>        </g>        <g transform="matrix(1,0,0,1,625.942,523.165)">            <path d="M0,-88.19C-0.47,-88.19 -0.949,-88.139 -1.425,-88.04C-2.28,-87.86 -3.086,-87.496 -3.786,-86.972L-4.315,-86.578C-4.732,-86.268 -5.149,-85.959 -5.562,-85.642C-22.286,-72.808 -41.546,-66.301 -62.806,-66.301C-64.391,-66.301 -66.013,-66.337 -67.624,-66.408C-67.712,-66.412 -67.8,-66.414 -67.888,-66.414C-68.323,-66.414 -68.758,-66.367 -69.184,-66.272L-69.697,-66.159C-70.564,-65.967 -71.378,-65.586 -72.079,-65.042C-72.359,-64.824 -72.638,-64.603 -72.916,-64.381C-73.417,-63.983 -73.891,-63.606 -74.327,-63.298C-87.096,-54.293 -101.479,-46.487 -117.079,-40.1C-139.78,-30.805 -163.889,-24.425 -190.782,-20.596C-207.695,-18.189 -225.438,-16.967 -243.519,-16.967C-244.252,-16.967 -244.987,-16.969 -245.721,-16.973C-256.229,-17.03 -266.742,-17.691 -276.627,-18.371C-277.021,-18.464 -277.635,-18.585 -278.373,-18.585C-281.179,-18.585 -283.577,-16.914 -284.631,-14.223C-285.288,-12.547 -285.157,-10.666 -284.276,-9.096C-283.395,-7.527 -281.854,-6.436 -280.082,-6.125C-266.019,-3.657 -251.162,-1.952 -234.661,-0.913C-225.039,-0.307 -215.385,0 -205.966,0C-188.48,0 -171.062,-1.059 -154.196,-3.148C-130.065,-6.137 -108.315,-10.92 -87.704,-17.772C-60.597,-26.783 -38.418,-38.218 -19.899,-52.731C-9.595,-60.807 -1.399,-69.117 5.155,-78.134C5.656,-78.823 6.004,-79.609 6.177,-80.443C6.585,-82.408 6.124,-84.389 4.913,-85.878C3.717,-87.347 1.927,-88.19 0,-88.19M0,-82.19C0.274,-82.19 0.375,-82.014 0.303,-81.662C-6.461,-72.358 -14.629,-64.484 -23.601,-57.454C-43.484,-41.871 -65.895,-31.345 -89.598,-23.465C-110.887,-16.389 -132.719,-11.854 -154.934,-9.103C-171.917,-6.999 -188.93,-6 -205.966,-6C-215.398,-6 -224.837,-6.306 -234.284,-6.901C-249.283,-7.845 -264.223,-9.433 -279.045,-12.035C-278.875,-12.466 -278.637,-12.585 -278.373,-12.585C-278.062,-12.585 -277.716,-12.421 -277.403,-12.41C-266.864,-11.683 -256.323,-11.03 -245.753,-10.973C-245.009,-10.969 -244.262,-10.967 -243.519,-10.967C-225.577,-10.967 -207.719,-12.125 -189.937,-14.657C-164.134,-18.33 -139.011,-24.636 -114.806,-34.547C-99.32,-40.887 -84.604,-48.707 -70.868,-58.395C-70.021,-58.993 -69.224,-59.664 -68.402,-60.3C-68.23,-60.337 -68.06,-60.376 -67.888,-60.414C-66.183,-60.339 -64.488,-60.301 -62.806,-60.301C-40.457,-60.301 -20.09,-66.931 -1.908,-80.882C-1.341,-81.317 -0.765,-81.74 -0.192,-82.168C-0.12,-82.182 -0.057,-82.19 0,-82.19" style="fill:white;fill-rule:nonzero;"></path>        </g>        <g transform="matrix(1,0,0,1,414.903,400.053)">            <path d="M0,-196.455C-6.973,-197.553 -13.942,-198.673 -20.92,-199.744C-33.226,-201.633 -45.601,-202.923 -58.001,-203.938C-76.237,-205.432 -94.508,-206.083 -112.798,-205.565C-161.792,-204.179 -209.528,-196.058 -255.228,-177.403C-276.844,-168.579 -297.228,-157.46 -315.458,-142.541C-329.182,-131.31 -341.032,-118.41 -349.186,-102.328C-355.305,-90.26 -358.475,-77.472 -357.878,-63.818C-357.465,-54.344 -355.406,-45.206 -351.427,-36.677C-345.417,-23.791 -338.608,-11.351 -329.547,-0.348C-324.871,5.332 -319.755,10.575 -314.335,15.515C-313.532,16.246 -312.725,16.974 -311.625,17.97C-312.23,17.923 -312.433,17.969 -312.556,17.889C-330.813,5.906 -347.537,-7.868 -360.989,-25.419C-370.426,-37.73 -377.631,-51.207 -380.815,-66.63C-385.273,-88.225 -381.036,-108.175 -369.402,-126.591C-359.542,-142.202 -346.196,-154.214 -331.155,-164.391C-310.656,-178.262 -288.222,-187.863 -264.804,-195.205C-242.913,-202.068 -220.54,-206.651 -197.832,-209.639C-170.184,-213.278 -142.428,-214.425 -114.589,-213.445C-76.012,-212.086 -37.954,-206.841 -0.498,-197.24C-0.059,-197.127 0.371,-196.972 0.805,-196.836C0.815,-196.1 0.403,-196.286 0,-196.455" style="fill:rgb(0,135,84);fill-rule:nonzero;"></path>        </g>        <g transform="matrix(1,0,0,1,557.54,323.903)">            <path d="M0,138.962C-8.854,138.16 -17.611,136.822 -26.034,133.796C-52.073,124.443 -71.194,107.491 -81.649,81.066C-82.204,79.665 -82.611,78.202 -83.087,76.768C-82.251,75.859 -81.149,76.169 -80.153,76.167C-69.137,76.143 -58.117,75.979 -47.106,76.209C-38.919,76.38 -30.974,75.298 -23.116,73.066C-12.736,70.119 -2.9,65.984 5.896,59.551C19.26,49.776 27.453,36.451 31.638,20.389C33.206,14.368 33.99,8.223 34.639,2.051C34.701,1.462 34.686,0.858 35.005,0.327C36.069,-0.207 36.349,0.733 36.697,1.346C40.941,8.805 44.307,16.664 46.829,24.89C48.826,31.401 50.187,38.066 50.795,44.858C52.022,58.555 50.205,71.858 45.429,84.718C40.899,96.915 34.049,107.632 25.516,117.324C18.195,125.64 9.878,132.724 0.879,139.036C0.574,139.161 0.278,139.169 0,138.962" style="fill:rgb(252,184,46);fill-rule:nonzero;"></path>        </g>        <g transform="matrix(1,0,0,1,524.432,359.475)">            <path d="M0,-91.633C0.372,-91.685 0.502,-91.994 0.678,-92.271C13.048,-111.81 24.854,-131.675 34.377,-152.857C35.798,-156.017 37.131,-159.218 38.576,-162.566C40.558,-158.083 42.401,-153.729 44.389,-149.445C54.606,-127.427 67.206,-106.816 80.24,-86.459C91.215,-69.318 102.709,-52.524 113.23,-35.08C117.736,-27.609 122.781,-20.44 125.675,-12.07C136.235,18.483 130.943,46.071 110.704,70.852C110.303,70.933 110.183,70.674 110.115,70.348C110.168,69.316 110.73,68.479 111.178,67.612C115.567,59.104 118.297,50.074 119.445,40.54C120.694,30.168 119.592,19.99 116.772,10.006C112.435,-5.357 104.48,-18.697 94.443,-30.845C84.884,-42.415 73.898,-52.414 62.061,-61.478C61.662,-61.877 61.23,-62.233 60.748,-62.524C58.707,-63.947 57.054,-65.901 54.797,-67.033C54.271,-67.549 53.971,-68.212 53.66,-68.863C50.08,-76.362 44.141,-81.2 36.79,-84.481C29.646,-87.67 22.049,-88.921 14.413,-90.028C14.221,-90.056 14.031,-90.097 13.84,-90.137C13.155,-90.377 12.446,-90.364 11.735,-90.333C10.872,-90.331 10.009,-90.322 9.156,-90.495C7.956,-90.874 6.729,-90.728 5.506,-90.688C4.178,-90.678 2.845,-90.608 1.525,-90.734C0.943,-90.79 0.06,-90.558 0,-91.633" style="fill:rgb(252,184,46);fill-rule:nonzero;"></path>        </g>        <g transform="matrix(1,0,0,1,586.507,463.597)">            <path d="M0,-166.125C19.573,-151.353 36.689,-134.29 48.18,-112.056C54.356,-100.103 58.011,-87.396 58.32,-73.82C58.62,-60.694 55.645,-48.318 49.754,-36.656C49.251,-35.66 48.744,-34.666 48.239,-33.671C48.094,-33.043 47.774,-32.496 47.455,-31.95C45.745,-29.731 44.868,-26.866 42.396,-25.235C41.707,-24.781 41.082,-24.229 40.428,-23.721C40.125,-23.074 39.692,-22.53 39.178,-22.046C33.603,-17.262 27.42,-13.433 20.875,-10.234C12.612,-6.195 3.934,-3.405 -5.088,-1.728C-12.241,-0.396 -19.454,0 -26.709,-0.225C-27.341,-0.244 -28.027,-0.187 -28.452,-0.846C-21.055,-6.321 -13.872,-12.058 -7.472,-18.746C5.673,-32.48 15.312,-48.239 19.506,-67.156C23.648,-85.837 21.643,-103.982 14.947,-121.714C12.598,-127.938 9.831,-133.965 6.342,-139.627C5.421,-140.375 5.716,-141.441 5.71,-142.388C5.687,-146.085 5.791,-149.78 4.986,-153.43C4.194,-157.019 2.884,-160.361 0.848,-163.406C0.413,-164.056 -0.083,-164.686 -0.21,-165.503C-0.213,-165.736 -0.143,-165.943 0,-166.125" style="fill:rgb(253,253,253);fill-rule:nonzero;"></path>        </g>        <g transform="matrix(1,0,0,1,558.055,496.091)">            <path d="M0,-33.34C24.351,-32.271 46.43,-38.808 65.979,-53.809C66.547,-54.243 67.123,-54.666 67.695,-55.094C68.113,-55.182 68.278,-55.014 68.19,-54.588C61.427,-45.284 53.259,-37.41 44.287,-30.38C24.403,-14.797 1.993,-4.271 -21.71,3.608C-42.999,10.684 -64.831,15.22 -87.046,17.971C-113.433,21.239 -139.888,21.842 -166.396,20.173C-181.396,19.228 -196.335,17.64 -211.157,15.039C-210.789,14.1 -210.095,14.642 -209.516,14.664C-198.977,15.39 -188.436,16.044 -177.865,16.1C-159.174,16.2 -140.568,15.054 -122.048,12.417C-96.246,8.744 -71.123,2.437 -46.918,-7.474C-31.433,-13.814 -16.717,-21.633 -2.98,-31.321C-2.134,-31.919 -1.336,-32.59 -0.515,-33.227C-0.343,-33.264 -0.172,-33.302 0,-33.34" style="fill:rgb(0,135,84);fill-rule:nonzero;"></path>        </g>        <g transform="matrix(1,0,0,1,531.51,356.853)">            <path d="M0,-43.688C1.655,-40.19 1.322,-36.519 0.975,-32.826C0.495,-27.73 -0.642,-22.831 -2.921,-18.24C-6.264,-11.508 -11.508,-6.904 -18.364,-4.261C-26.877,-0.98 -35.563,0.54 -44.527,-2.372C-44.956,-2.512 -45.366,-2.707 -45.784,-2.876C-47.056,-4.711 -46.759,-6.806 -46.586,-8.811C-45.744,-18.558 -41.189,-26.492 -35.068,-33.783C-29.534,-40.376 -22.36,-42.944 -14.242,-43.803C-10.236,-44.228 -6.236,-44.18 -2.229,-44.196C-1.448,-44.2 -0.668,-44.2 0,-43.688" style="fill:rgb(252,184,46);fill-rule:nonzero;"></path>        </g>        <g id="Distribuidor-de-refacciones-" serif:id="Distribuidor de refacciones ">            <g id="Sombra-Blanca" serif:id="Sombra Blanca" transform="matrix(1.25815,0,0,1.25815,-155.92,-80.9389)">                <path d="M211.811,421.441C211.465,423.082 211.877,424.792 212.933,426.095C213.99,427.398 215.577,428.155 217.255,428.155L224.308,428.155C226.473,428.155 228.449,427.862 230.242,427.31C232.183,426.713 233.906,425.833 235.421,424.691C236.968,423.525 238.28,422.1 239.347,420.408C240.339,418.835 241.107,417.049 241.624,415.037C242.097,413.198 242.346,411.18 242.346,408.98C242.346,404.429 240.808,401.062 238.205,398.694C235.73,396.443 232.407,395.135 228.112,395.135L221.882,395.135C219.253,395.135 216.982,396.975 216.439,399.548L211.811,421.441Z" style="fill:white;fill-rule:nonzero;"></path>                <path d="M232.791,421.441C232.444,423.082 232.856,424.792 233.913,426.095C234.969,427.398 236.557,428.155 238.235,428.155L244.09,428.155C246.719,428.155 248.989,426.315 249.533,423.742L254.16,401.849C254.507,400.208 254.095,398.498 253.039,397.195C251.982,395.892 250.394,395.135 248.717,395.135L242.862,395.135C240.232,395.135 237.962,396.975 237.418,399.548L232.791,421.441Z" style="fill:white;fill-rule:nonzero;"></path>                <path d="M246.597,411.301C246.562,411.32 246.527,411.339 246.492,411.358C244.735,412.342 243.647,414.199 243.647,416.212L243.647,421.454C243.647,423.34 244.603,425.097 246.186,426.123C247.36,426.884 248.751,427.496 250.381,427.909C251.797,428.269 253.289,428.455 254.857,428.455L254.857,428.455C256.814,428.455 258.545,428.195 260.057,427.727C261.88,427.164 263.401,426.314 264.652,425.239C266.015,424.069 267.053,422.65 267.763,420.98C268.408,419.466 268.761,417.766 268.761,415.868C268.761,414.38 268.524,413.018 268.089,411.775C267.931,411.323 267.742,410.878 267.523,410.44C268.023,409.958 268.433,409.381 268.727,408.736L270.748,404.289C271.945,401.656 270.926,398.546 268.403,397.133C267.087,396.395 265.632,395.815 264.033,395.41C262.489,395.019 260.893,394.82 259.244,394.82C257.411,394.82 255.744,395.106 254.235,395.636C252.55,396.227 251.113,397.083 249.904,398.168C248.629,399.314 247.649,400.661 246.96,402.207C246.283,403.725 245.924,405.386 245.924,407.198C245.924,408.704 246.163,410.069 246.597,411.301Z" style="fill:white;fill-rule:nonzero;"></path>                <path d="M265.69,410.721L263.456,421.458C263.115,423.097 263.53,424.803 264.587,426.102C265.643,427.401 267.228,428.155 268.903,428.155L274.758,428.155C277.394,428.155 279.668,426.306 280.205,423.725L282.832,411.099C282.832,411.099 283.069,411.099 283.069,411.099C285.682,411.099 287.942,409.281 288.503,406.73L289.566,401.893C289.928,400.247 289.524,398.526 288.468,397.212C287.412,395.899 285.818,395.135 284.132,395.135L268.738,395.135C266.113,395.135 263.846,396.969 263.297,399.536L262.264,404.373C261.913,406.016 262.323,407.729 263.379,409.034C263.997,409.798 264.796,410.374 265.69,410.721Z" style="fill:white;fill-rule:nonzero;"></path>                <path d="M291.492,427.368C292.336,427.872 293.317,428.155 294.345,428.155L300.724,428.155C302.597,428.155 304.344,427.213 305.373,425.649C306.402,424.084 306.575,422.107 305.833,420.388L303.584,415.173C304.241,414.409 304.827,413.524 305.328,412.505C306.092,410.951 306.558,409.029 306.558,406.703C306.558,402.669 305.004,399.744 302.315,397.737C300.193,396.153 297.198,395.135 293.207,395.135L287.412,395.135C284.782,395.135 282.512,396.975 281.968,399.548L277.341,421.441C276.994,423.082 277.406,424.792 278.463,426.095C279.519,427.398 281.107,428.155 282.785,428.155L288.64,428.155C289.674,428.155 290.652,427.871 291.492,427.368ZM292.096,406.262L291.509,409.062C292.036,409.07 292.549,409.152 293.038,409.3C293.425,408.95 293.868,408.649 294.361,408.413L292.614,406.262L292.096,406.262Z" style="fill:white;fill-rule:nonzero;"></path>                <path d="M297.272,421.441C296.926,423.082 297.338,424.792 298.394,426.095C299.451,427.398 301.038,428.155 302.716,428.155L308.571,428.155C311.2,428.155 313.471,426.315 314.015,423.742L318.642,401.849C318.989,400.208 318.577,398.498 317.52,397.195C316.464,395.892 314.876,395.135 313.198,395.135L307.343,395.135C304.714,395.135 302.443,396.975 301.9,399.548L297.272,421.441Z" style="fill:white;fill-rule:nonzero;"></path>                <path d="M335.569,412.17C335.966,411.624 336.308,411.038 336.599,410.412C337.254,408.996 337.63,407.357 337.63,405.475C337.63,403.435 337.098,401.636 336.111,400.056C335.107,398.45 333.595,397.102 331.432,396.188C329.909,395.544 327.929,395.135 325.463,395.135L318.17,395.135C315.541,395.135 313.27,396.975 312.726,399.548L308.099,421.441C307.752,423.082 308.164,424.792 309.221,426.095C310.277,427.398 311.865,428.155 313.543,428.155L321.734,428.155C324.066,428.155 326.176,427.784 328.071,427.09C330.471,426.212 332.361,424.791 333.782,422.88C335.203,420.972 336.058,418.513 336.058,415.419C336.058,414.243 335.888,413.162 335.569,412.17ZM321.119,414.547L320.585,417.028L321.734,417.028C322.498,417.028 323.205,416.951 323.851,416.768L322.149,414.662C321.8,414.656 321.455,414.617 321.119,414.547ZM330.478,416.007L330.477,416.014L330.513,415.993L330.478,416.007ZM322.893,406.262L322.526,407.864C323.672,407.879 324.648,408.071 325.475,408.371C325.587,408.244 325.678,408.103 325.747,407.946L325.751,407.938L324.416,406.262L322.893,406.262Z" style="fill:white;fill-rule:nonzero;"></path>                <path d="M345.858,395.721C345.095,395.34 344.246,395.135 343.372,395.135L337.517,395.135C334.896,395.135 332.631,396.964 332.079,399.526L329.099,413.348C329.088,413.397 329.078,413.446 329.069,413.495C328.976,413.992 328.904,414.523 328.858,415.09C328.814,415.619 328.794,416.108 328.794,416.557C328.794,418.845 329.367,420.88 330.446,422.68C331.552,424.527 333.127,426.003 335.224,427.051C337.009,427.944 339.132,428.455 341.62,428.455L341.62,428.455C344.582,428.455 347.011,427.884 348.945,426.924C351.165,425.823 352.937,424.213 354.255,422.088C355.317,420.376 356.144,418.292 356.663,415.806C356.663,415.806 359.64,401.86 359.64,401.86C359.991,400.218 359.581,398.505 358.525,397.199C357.468,395.893 355.879,395.135 354.199,395.135L348.344,395.135C347.457,395.135 346.61,395.344 345.858,395.721Z" style="fill:white;fill-rule:nonzero;"></path>                <path d="M349.04,421.441C348.693,423.082 349.106,424.792 350.162,426.095C351.218,427.398 352.806,428.155 354.484,428.155L360.339,428.155C362.968,428.155 365.239,426.315 365.782,423.742L370.41,401.849C370.756,400.208 370.344,398.498 369.288,397.195C368.232,395.892 366.644,395.135 364.966,395.135L359.111,395.135C356.482,395.135 354.211,396.975 353.668,399.548L349.04,421.441Z" style="fill:white;fill-rule:nonzero;"></path>                <path d="M359.867,421.441C359.52,423.082 359.932,424.792 360.989,426.095C362.045,427.398 363.633,428.155 365.311,428.155L372.364,428.155C374.529,428.155 376.505,427.862 378.298,427.31C380.238,426.713 381.961,425.833 383.477,424.691C385.024,423.525 386.335,422.1 387.402,420.408C388.394,418.835 389.162,417.049 389.68,415.037C390.152,413.198 390.401,411.18 390.401,408.98C390.401,404.429 388.863,401.062 386.26,398.694C383.785,396.443 380.463,395.135 376.167,395.135L369.938,395.135C367.308,395.135 365.038,396.975 364.494,399.548L359.867,421.441Z" style="fill:white;fill-rule:nonzero;"></path>                <path d="M395.769,428.455C397.778,428.455 399.597,428.154 401.233,427.596C402.94,427.014 404.461,426.191 405.803,425.143C407.093,424.137 408.215,422.964 409.168,421.623C410.067,420.36 410.809,418.989 411.392,417.508C411.938,416.118 412.348,414.676 412.618,413.181C412.882,411.719 413.013,410.253 413.013,408.785C413.013,404.665 411.738,401.413 409.484,398.925C407.133,396.33 403.778,394.79 399.228,394.79C397.212,394.79 395.381,395.093 393.727,395.657C392.02,396.239 390.496,397.055 389.148,398.088C387.839,399.093 386.7,400.265 385.733,401.604C384.827,402.858 384.073,404.219 383.474,405.689C382.903,407.091 382.477,408.543 382.198,410.044C381.925,411.51 381.79,412.982 381.79,414.46C381.79,417.11 382.335,419.409 383.317,421.381C384.451,423.659 386.136,425.432 388.378,426.693C390.353,427.803 392.802,428.455 395.769,428.455L395.769,428.455Z" style="fill:white;fill-rule:nonzero;"></path>                <path d="M417.595,427.368C418.439,427.872 419.419,428.155 420.448,428.155L426.827,428.155C428.699,428.155 430.446,427.213 431.475,425.649C432.504,424.084 432.677,422.107 431.936,420.388L429.686,415.173C430.343,414.409 430.93,413.524 431.431,412.505C432.194,410.951 432.66,409.029 432.66,406.703C432.66,402.669 431.107,399.744 428.417,397.737C426.295,396.153 423.3,395.135 419.31,395.135L413.514,395.135C410.885,395.135 408.615,396.975 408.071,399.548L403.444,421.441C403.097,423.082 403.509,424.792 404.565,426.095C405.622,427.398 407.21,428.155 408.887,428.155L414.742,428.155C415.776,428.155 416.755,427.871 417.595,427.368ZM418.198,406.262L417.612,409.062C418.138,409.07 418.652,409.152 419.14,409.3C419.528,408.95 419.97,408.649 420.463,408.413L418.717,406.262L418.198,406.262Z" style="fill:white;fill-rule:nonzero;"></path>                <path d="M431.342,421.441C430.995,423.082 431.407,424.792 432.463,426.095C433.52,427.398 435.108,428.155 436.785,428.155L443.838,428.155C446.003,428.155 447.98,427.862 449.772,427.31C451.713,426.713 453.436,425.833 454.951,424.691C456.499,423.525 457.81,422.1 458.877,420.408C459.869,418.835 460.637,417.049 461.154,415.037C461.627,413.198 461.876,411.18 461.876,408.98C461.876,404.429 460.338,401.062 457.735,398.694C455.26,396.443 451.937,395.135 447.642,395.135L441.412,395.135C438.783,395.135 436.513,396.975 435.969,399.548L431.342,421.441Z" style="fill:white;fill-rule:nonzero;"></path>                <path d="M477.104,416.151C477.307,415.751 477.463,415.322 477.566,414.869L478.644,410.122C478.737,409.715 478.782,409.304 478.782,408.895C479.308,408.23 479.688,407.438 479.867,406.563L480.84,401.816C481.176,400.179 480.758,398.477 479.701,397.182C478.645,395.886 477.062,395.135 475.39,395.135L462.392,395.135C459.763,395.135 457.492,396.975 456.949,399.548L452.321,421.441C451.974,423.082 452.387,424.792 453.443,426.095C454.499,427.398 456.087,428.155 457.765,428.155L470.763,428.155C473.393,428.155 475.663,426.314 476.207,423.741L477.225,418.919C477.421,417.99 477.374,417.038 477.104,416.151Z" style="fill:white;fill-rule:nonzero;"></path>                <path d="M297.662,458.037C298.506,458.541 299.486,458.824 300.515,458.824L306.894,458.824C308.766,458.824 310.513,457.882 311.542,456.317C312.571,454.753 312.744,452.776 312.003,451.056L309.753,445.842C310.41,445.078 310.997,444.192 311.498,443.173C312.261,441.62 312.727,439.697 312.727,437.372C312.727,433.337 311.174,430.412 308.484,428.405C306.362,426.822 303.367,425.803 299.377,425.803L293.581,425.803C290.952,425.803 288.682,427.644 288.138,430.216L283.511,452.109C283.164,453.751 283.576,455.461 284.632,456.764C285.689,458.067 287.277,458.824 288.954,458.824L294.809,458.824C295.843,458.824 296.822,458.539 297.662,458.037ZM298.265,436.931L297.679,439.73C298.205,439.738 298.719,439.82 299.207,439.968C299.595,439.618 300.037,439.317 300.53,439.081L298.784,436.931L298.265,436.931Z" style="fill:white;fill-rule:nonzero;"></path>                <path d="M328.225,446.819C328.428,446.42 328.584,445.99 328.687,445.537L329.765,440.79C329.857,440.384 329.903,439.972 329.903,439.563C330.429,438.899 330.808,438.107 330.988,437.231L331.961,432.484C332.297,430.847 331.879,429.145 330.822,427.85C329.765,426.555 328.182,425.803 326.511,425.803L313.513,425.803C310.883,425.803 308.613,427.644 308.069,430.216L303.442,452.109C303.095,453.751 303.507,455.461 304.564,456.764C305.62,458.067 307.208,458.824 308.886,458.824L321.884,458.824C324.513,458.824 326.784,456.982 327.327,454.41L328.346,449.588C328.542,448.658 328.495,447.707 328.225,446.819Z" style="fill:white;fill-rule:nonzero;"></path>                <path d="M346.804,439.819C347.435,439.114 347.891,438.242 348.097,437.264L349.1,432.517C349.447,430.876 349.035,429.166 347.979,427.863C346.922,426.56 345.334,425.803 343.657,425.803L330.749,425.803C328.119,425.803 325.849,427.644 325.305,430.216L320.678,452.109C320.331,453.751 320.743,455.461 321.8,456.764C322.856,458.067 324.444,458.824 326.122,458.824L331.977,458.824C334.616,458.824 336.891,456.97 337.425,454.386L338.201,450.632C338.201,450.632 340.228,450.632 340.228,450.632C342.847,450.632 345.112,448.805 345.666,446.245L346.699,441.468C346.817,440.92 346.851,440.365 346.804,439.819Z" style="fill:white;fill-rule:nonzero;"></path>                <path d="M351.706,456.71C352.726,458 354.305,458.824 356.071,458.824L361.776,458.824C363.333,458.824 364.819,458.172 365.872,457.026C366.926,455.88 367.451,454.345 367.321,452.794L365.479,430.9C365.236,428.019 362.827,425.803 359.935,425.803L352.402,425.803C350.309,425.803 348.393,426.978 347.444,428.843L336.302,450.737C335.425,452.461 335.506,454.518 336.518,456.168C337.53,457.818 339.326,458.824 341.261,458.824L347.341,458.824C349.066,458.824 350.666,458.026 351.706,456.71ZM354.847,439.848L354.633,440.07L355.126,440.574L355.11,440.386C355.033,440.233 354.945,440.052 354.847,439.848Z" style="fill:white;fill-rule:nonzero;"></path>                <path d="M383.394,442.931C383.457,442.915 383.519,442.898 383.582,442.879C385.071,442.43 386.304,441.379 386.983,439.98L389.199,435.413C390.456,432.823 389.53,429.702 387.063,428.217C385.632,427.356 384.112,426.685 382.5,426.206C380.873,425.722 379.039,425.459 376.991,425.459C374.514,425.459 372.33,425.908 370.424,426.726C368.461,427.568 366.774,428.728 365.352,430.189C364.024,431.553 362.932,433.103 362.081,434.843C361.29,436.458 360.706,438.157 360.33,439.939C359.97,441.652 359.792,443.352 359.792,445.039C359.792,447.625 360.288,449.883 361.186,451.83C362.259,454.158 363.89,455.968 366.072,457.268C368.028,458.434 370.473,459.123 373.457,459.123L373.457,459.123C374.951,459.123 376.416,458.984 377.852,458.709C379.359,458.42 380.85,457.949 382.323,457.288C384.323,456.391 385.609,454.403 385.609,452.212L385.609,447.375C385.609,445.622 384.784,443.978 383.394,442.931ZM377.542,441.555C377.478,441.667 377.42,441.785 377.366,441.91C377.277,442.114 377.201,442.327 377.138,442.549C377.377,442.458 377.625,442.358 377.882,442.249C378.105,442.155 378.333,442.076 378.563,442.013C378.211,441.826 377.881,441.674 377.567,441.563L377.542,441.555Z" style="fill:white;fill-rule:nonzero;"></path>                <path d="M402.711,442.931C402.774,442.915 402.837,442.898 402.899,442.879C404.388,442.43 405.622,441.379 406.3,439.98L408.517,435.413C409.774,432.823 408.847,429.702 406.381,428.217C404.95,427.356 403.429,426.685 401.818,426.206C400.191,425.722 398.356,425.459 396.308,425.459C393.832,425.459 391.648,425.908 389.742,426.726C387.779,427.568 386.092,428.728 384.67,430.189C383.342,431.553 382.25,433.103 381.398,434.843C380.607,436.458 380.023,438.157 379.648,439.939C379.287,441.652 379.109,443.352 379.109,445.039C379.109,447.625 379.606,449.883 380.504,451.83C381.576,454.158 383.207,455.968 385.389,457.268C387.346,458.434 389.79,459.123 392.774,459.123L392.774,459.123C394.269,459.123 395.734,458.984 397.169,458.709C398.676,458.42 400.168,457.949 401.64,457.288C403.64,456.391 404.927,454.403 404.927,452.212L404.927,447.375C404.927,445.622 404.101,443.978 402.711,442.931ZM396.86,441.555C396.796,441.667 396.738,441.785 396.683,441.91C396.594,442.114 396.519,442.327 396.455,442.549C396.694,442.458 396.942,442.358 397.2,442.249C397.423,442.155 397.65,442.076 397.88,442.013C397.529,441.826 397.198,441.674 396.884,441.563L396.86,441.555Z" style="fill:white;fill-rule:nonzero;"></path>                <path d="M397.484,452.109C397.137,453.751 397.549,455.461 398.605,456.764C399.662,458.067 401.25,458.824 402.927,458.824L408.782,458.824C411.412,458.824 413.682,456.983 414.226,454.41L418.853,432.517C419.2,430.876 418.788,429.166 417.731,427.863C416.675,426.56 415.087,425.803 413.41,425.803L407.554,425.803C404.925,425.803 402.655,427.644 402.111,430.216L397.484,452.109Z" style="fill:white;fill-rule:nonzero;"></path>                <path d="M423.233,459.123C425.241,459.123 427.061,458.822 428.697,458.264C430.404,457.682 431.925,456.859 433.267,455.812C434.556,454.806 435.678,453.633 436.632,452.291C437.531,451.028 438.273,449.657 438.855,448.176C439.402,446.786 439.811,445.344 440.081,443.849C440.346,442.387 440.477,440.922 440.477,439.453C440.477,435.333 439.202,432.081 436.948,429.593C434.597,426.998 431.242,425.459 426.692,425.459C424.676,425.459 422.844,425.762 421.191,426.325C419.483,426.907 417.96,427.723 416.612,428.757C415.303,429.761 414.164,430.933 413.197,432.272C412.291,433.526 411.537,434.887 410.938,436.357C410.366,437.759 409.941,439.211 409.662,440.713C409.389,442.178 409.253,443.65 409.253,445.129C409.253,447.778 409.798,450.077 410.78,452.049C411.915,454.327 413.599,456.1 415.842,457.361C417.817,458.472 420.266,459.123 423.233,459.123L423.233,459.123Z" style="fill:white;fill-rule:nonzero;"></path>                <path d="M445.178,457.488C446.162,458.329 447.433,458.824 448.795,458.824L455.608,458.824C458.238,458.824 460.508,456.983 461.052,454.41L465.679,432.517C466.026,430.876 465.614,429.166 464.557,427.863C463.501,426.56 461.913,425.803 460.236,425.803L455.024,425.803C453.658,425.803 452.389,426.3 451.408,427.139C450.425,426.298 449.153,425.803 447.792,425.803L440.978,425.803C438.349,425.803 436.078,427.644 435.535,430.216L430.907,452.109C430.561,453.751 430.973,455.461 432.029,456.764C433.085,458.067 434.673,458.824 436.351,458.824L441.562,458.824C442.928,458.824 444.198,458.327 445.178,457.488ZM444.182,443.113L444.164,443.2L444.268,443.278L444.182,443.113ZM445.067,441.918C444.842,442.526 444.651,442.993 444.548,443.238L444.776,443.022L445.218,442.438L445.067,441.918Z" style="fill:white;fill-rule:nonzero;"></path>                <path d="M479.919,446.819C480.122,446.42 480.279,445.99 480.381,445.537L481.46,440.79C481.552,440.384 481.597,439.972 481.598,439.563C482.124,438.899 482.503,438.107 482.682,437.231L483.656,432.484C483.991,430.847 483.573,429.145 482.517,427.85C481.46,426.555 479.877,425.803 478.205,425.803L465.207,425.803C462.578,425.803 460.308,427.644 459.764,430.216L455.137,452.109C454.79,453.751 455.202,455.461 456.258,456.764C457.315,458.067 458.903,458.824 460.58,458.824L473.578,458.824C476.208,458.824 478.478,456.982 479.022,454.41L480.04,449.588C480.236,448.658 480.189,447.707 479.919,446.819Z" style="fill:white;fill-rule:nonzero;"></path>                <path d="M475.352,441.97C475.316,441.988 475.281,442.007 475.247,442.027C473.49,443.011 472.402,444.867 472.402,446.881L472.402,452.122C472.402,454.008 473.358,455.766 474.941,456.791C476.115,457.552 477.506,458.164 479.135,458.578C480.552,458.937 482.044,459.123 483.611,459.123L483.611,459.123C485.569,459.123 487.299,458.863 488.811,458.396C490.635,457.832 492.156,456.982 493.407,455.908C494.769,454.737 495.808,453.319 496.518,451.649C497.162,450.134 497.516,448.434 497.516,446.536C497.516,445.048 497.279,443.686 496.844,442.443C496.685,441.991 496.497,441.546 496.277,441.108C496.778,440.626 497.188,440.05 497.481,439.404L499.503,434.957C500.7,432.325 499.68,429.215 497.158,427.801C495.841,427.063 494.386,426.484 492.787,426.078C491.243,425.687 489.648,425.489 487.999,425.489C486.166,425.489 484.499,425.775 482.99,426.304C481.305,426.895 479.868,427.751 478.659,428.837C477.383,429.982 476.403,431.329 475.714,432.875C475.037,434.394 474.678,436.055 474.678,437.866C474.678,439.372 474.917,440.738 475.352,441.97Z" style="fill:white;fill-rule:nonzero;"></path>            </g>            <g id="Texto" transform="matrix(1.25815,0,0,1.25815,-155.92,-80.9389)">                <path d="M217.255,422.592L221.882,400.698L228.112,400.698C230.797,400.698 232.914,401.402 234.461,402.81C236.008,404.218 236.782,406.274 236.782,408.98C236.782,410.677 236.6,412.234 236.235,413.652C235.871,415.069 235.339,416.332 234.641,417.44C233.942,418.548 233.086,419.484 232.072,420.248C231.059,421.012 229.904,421.593 228.606,421.993C227.308,422.392 225.875,422.592 224.308,422.592L217.255,422.592ZM224.158,417.74L225.192,417.74C225.86,417.74 226.487,417.61 227.071,417.35C227.655,417.091 228.179,416.714 228.643,416.22C229.107,415.726 229.507,415.132 229.841,414.438C230.176,413.744 230.43,412.963 230.605,412.094C230.78,411.226 230.867,410.287 230.867,409.279C230.867,408.031 230.597,407.085 230.058,406.441C229.519,405.797 228.766,405.475 227.797,405.475L226.734,405.475L224.158,417.74Z" style="fill:rgb(0,135,84);fill-rule:nonzero;"></path>                <path d="M238.235,422.592L242.862,400.698L248.717,400.698L244.09,422.592L238.235,422.592Z" style="fill:rgb(0,135,84);fill-rule:nonzero;"></path>                <path d="M254.857,422.891C253.768,422.891 252.733,422.766 251.749,422.517C250.766,422.267 249.92,421.913 249.211,421.454L249.211,416.212C250.01,416.702 250.951,417.136 252.034,417.515C253.117,417.895 254.118,418.084 255.036,418.084C255.406,418.084 255.73,418.044 256.01,417.964C256.289,417.885 256.524,417.77 256.713,417.62C256.903,417.47 257.045,417.283 257.14,417.058C257.235,416.834 257.282,416.582 257.282,416.302C257.282,415.933 257.173,415.588 256.953,415.269C256.733,414.949 256.436,414.633 256.062,414.318C255.688,414.004 255.276,413.662 254.827,413.292C254.158,412.743 253.571,412.169 253.067,411.57C252.563,410.971 252.174,410.315 251.899,409.601C251.625,408.887 251.487,408.086 251.487,407.198C251.487,406.209 251.672,405.301 252.041,404.472C252.411,403.644 252.937,402.922 253.621,402.308C254.305,401.694 255.124,401.22 256.077,400.886C257.03,400.551 258.086,400.384 259.244,400.384C260.422,400.384 261.563,400.524 262.666,400.803C263.769,401.083 264.775,401.477 265.683,401.986L263.662,406.434C262.963,406.084 262.232,405.777 261.468,405.513C260.704,405.248 259.983,405.116 259.304,405.116C258.885,405.116 258.545,405.168 258.286,405.273C258.026,405.378 257.827,405.513 257.687,405.678C257.547,405.842 257.45,406.02 257.395,406.209C257.34,406.399 257.312,406.584 257.312,406.763C257.312,407.073 257.38,407.37 257.515,407.654C257.649,407.939 257.891,408.253 258.241,408.598C258.59,408.942 259.084,409.354 259.723,409.833C260.532,410.432 261.193,411.041 261.708,411.66C262.222,412.279 262.599,412.93 262.838,413.614C263.078,414.298 263.198,415.049 263.198,415.868C263.198,416.956 263.013,417.934 262.643,418.803C262.274,419.672 261.735,420.41 261.026,421.019C260.317,421.628 259.446,422.092 258.413,422.412C257.38,422.731 256.194,422.891 254.857,422.891Z" style="fill:rgb(0,135,84);fill-rule:nonzero;"></path>                <path d="M268.903,422.592L272.452,405.535L267.705,405.535L268.738,400.698L284.132,400.698L283.069,405.535L278.307,405.535L274.758,422.592L268.903,422.592Z" style="fill:rgb(0,135,84);fill-rule:nonzero;"></path>                <path d="M282.785,422.592L287.412,400.698L293.207,400.698C295.723,400.698 297.649,401.198 298.987,402.196C300.325,403.194 300.994,404.697 300.994,406.703C300.994,408.041 300.774,409.157 300.335,410.05C299.896,410.944 299.352,411.66 298.703,412.199C298.054,412.738 297.41,413.148 296.771,413.427L300.724,422.592L294.345,422.592L291.425,414.625L290.332,414.625L288.64,422.592L282.785,422.592ZM291.275,410.178L292.039,410.178C292.428,410.178 292.808,410.12 293.177,410.005C293.546,409.89 293.878,409.711 294.173,409.466C294.467,409.222 294.702,408.902 294.877,408.508C295.051,408.113 295.139,407.637 295.139,407.078C295.139,406.549 294.989,406.099 294.689,405.73C294.39,405.361 293.866,405.176 293.117,405.176L292.323,405.176L291.275,410.178Z" style="fill:rgb(0,135,84);fill-rule:nonzero;"></path>                <path d="M302.716,422.592L307.343,400.698L313.198,400.698L308.571,422.592L302.716,422.592Z" style="fill:rgb(0,135,84);fill-rule:nonzero;"></path>                <path d="M313.543,422.592L318.17,400.698L325.463,400.698C327.03,400.698 328.298,400.903 329.266,401.312C330.235,401.722 330.943,402.286 331.393,403.005C331.842,403.723 332.067,404.547 332.067,405.475C332.067,406.464 331.894,407.33 331.55,408.074C331.205,408.817 330.701,409.439 330.037,409.938C329.374,410.437 328.567,410.831 327.619,411.121L327.619,411.241C328.498,411.53 329.196,412.039 329.715,412.768C330.235,413.497 330.494,414.38 330.494,415.419C330.494,417.126 330.102,418.506 329.319,419.559C328.535,420.612 327.482,421.381 326.159,421.865C324.836,422.35 323.361,422.592 321.734,422.592L313.543,422.592ZM320.371,418.024L321.599,418.024C322.198,418.024 322.722,417.909 323.172,417.68C323.621,417.45 323.973,417.143 324.227,416.759C324.482,416.375 324.609,415.948 324.609,415.479C324.609,414.79 324.444,414.276 324.115,413.936C323.785,413.597 323.206,413.427 322.378,413.427L321.36,413.427L320.371,418.024ZM322.243,409.099L323.321,409.099C324.01,409.099 324.547,408.997 324.931,408.792C325.315,408.588 325.587,408.306 325.747,407.946C325.907,407.587 325.987,407.173 325.987,406.703C325.987,406.214 325.832,405.837 325.523,405.573C325.213,405.308 324.734,405.176 324.085,405.176L323.142,405.176L322.243,409.099Z" style="fill:rgb(0,135,84);fill-rule:nonzero;"></path>                <path d="M341.62,422.891C340.103,422.891 338.8,422.619 337.712,422.075C336.624,421.531 335.793,420.78 335.219,419.821C334.645,418.863 334.358,417.775 334.358,416.557C334.358,416.247 334.373,415.91 334.403,415.546C334.433,415.182 334.477,414.84 334.537,414.52L337.517,400.698L343.372,400.698L340.452,414.37C340.392,414.66 340.343,414.954 340.303,415.254C340.263,415.553 340.243,415.833 340.243,416.093C340.243,416.692 340.407,417.158 340.737,417.493C341.066,417.827 341.546,417.994 342.174,417.994C342.764,417.994 343.265,417.865 343.679,417.605C344.094,417.345 344.448,416.929 344.743,416.355C345.037,415.781 345.284,415.019 345.484,414.071L348.344,400.698L354.199,400.698L351.219,414.655C350.85,416.432 350.286,417.932 349.527,419.155C348.768,420.378 347.75,421.306 346.472,421.94C345.194,422.574 343.577,422.891 341.62,422.891Z" style="fill:rgb(0,135,84);fill-rule:nonzero;"></path>                <path d="M354.484,422.592L359.111,400.698L364.966,400.698L360.339,422.592L354.484,422.592Z" style="fill:rgb(0,135,84);fill-rule:nonzero;"></path>                <path d="M365.311,422.592L369.938,400.698L376.167,400.698C378.853,400.698 380.969,401.402 382.517,402.81C384.064,404.218 384.838,406.274 384.838,408.98C384.838,410.677 384.655,412.234 384.291,413.652C383.927,415.069 383.395,416.332 382.696,417.44C381.997,418.548 381.141,419.484 380.128,420.248C379.115,421.012 377.959,421.593 376.661,421.993C375.364,422.392 373.931,422.592 372.364,422.592L365.311,422.592ZM372.214,417.74L373.247,417.74C373.916,417.74 374.542,417.61 375.126,417.35C375.711,417.091 376.235,416.714 376.699,416.22C377.163,415.726 377.562,415.132 377.897,414.438C378.231,413.744 378.486,412.963 378.661,412.094C378.835,411.226 378.923,410.287 378.923,409.279C378.923,408.031 378.653,407.085 378.114,406.441C377.575,405.797 376.821,405.475 375.853,405.475L374.79,405.475L372.214,417.74Z" style="fill:rgb(0,135,84);fill-rule:nonzero;"></path>                <path d="M395.769,422.891C393.902,422.891 392.347,422.542 391.105,421.843C389.862,421.144 388.926,420.163 388.297,418.9C387.668,417.637 387.353,416.157 387.353,414.46C387.353,413.322 387.458,412.189 387.668,411.061C387.878,409.933 388.197,408.842 388.626,407.789C389.056,406.736 389.595,405.76 390.244,404.861C390.892,403.963 391.656,403.177 392.535,402.503C393.413,401.829 394.409,401.302 395.522,400.923C396.635,400.544 397.871,400.354 399.228,400.354C401.924,400.354 403.968,401.123 405.361,402.66C406.753,404.198 407.45,406.239 407.45,408.785C407.45,409.923 407.347,411.059 407.143,412.192C406.938,413.325 406.628,414.418 406.214,415.471C405.8,416.524 405.273,417.5 404.634,418.399C403.995,419.297 403.244,420.083 402.381,420.757C401.517,421.431 400.536,421.955 399.438,422.33C398.34,422.704 397.117,422.891 395.769,422.891ZM396.278,418.054C396.768,418.054 397.237,417.944 397.686,417.725C398.135,417.505 398.557,417.193 398.951,416.789C399.346,416.385 399.7,415.9 400.015,415.336C400.329,414.772 400.601,414.148 400.831,413.464C401.06,412.781 401.235,412.049 401.355,411.271C401.475,410.492 401.535,409.683 401.535,408.845C401.535,407.717 401.295,406.828 400.816,406.179C400.337,405.53 399.643,405.206 398.734,405.206C398.185,405.206 397.671,405.331 397.192,405.58C396.713,405.83 396.271,406.174 395.867,406.614C395.462,407.053 395.1,407.567 394.781,408.156C394.461,408.745 394.189,409.384 393.965,410.073C393.74,410.762 393.57,411.475 393.456,412.214C393.341,412.953 393.283,413.692 393.283,414.43C393.283,415.219 393.396,415.883 393.62,416.422C393.845,416.961 394.179,417.368 394.624,417.642C395.068,417.917 395.619,418.054 396.278,418.054Z" style="fill:rgb(0,135,84);fill-rule:nonzero;"></path>                <path d="M408.887,422.592L413.514,400.698L419.31,400.698C421.825,400.698 423.752,401.198 425.09,402.196C426.428,403.194 427.096,404.697 427.096,406.703C427.096,408.041 426.877,409.157 426.438,410.05C425.998,410.944 425.454,411.66 424.805,412.199C424.156,412.738 423.513,413.148 422.874,413.427L426.827,422.592L420.448,422.592L417.528,414.625L416.434,414.625L414.742,422.592L408.887,422.592ZM417.378,410.178L418.142,410.178C418.531,410.178 418.91,410.12 419.28,410.005C419.649,409.89 419.981,409.711 420.275,409.466C420.57,409.222 420.805,408.902 420.979,408.508C421.154,408.113 421.241,407.637 421.241,407.078C421.241,406.549 421.092,406.099 420.792,405.73C420.493,405.361 419.968,405.176 419.22,405.176L418.426,405.176L417.378,410.178Z" style="fill:rgb(0,135,84);fill-rule:nonzero;"></path>                <path d="M436.785,422.592L441.412,400.698L447.642,400.698C450.327,400.698 452.444,401.402 453.991,402.81C455.539,404.218 456.312,406.274 456.312,408.98C456.312,410.677 456.13,412.234 455.766,413.652C455.401,415.069 454.87,416.332 454.171,417.44C453.472,418.548 452.616,419.484 451.603,420.248C450.589,421.012 449.434,421.593 448.136,421.993C446.838,422.392 445.406,422.592 443.838,422.592L436.785,422.592ZM443.689,417.74L444.722,417.74C445.391,417.74 446.017,417.61 446.601,417.35C447.185,417.091 447.709,416.714 448.173,416.22C448.638,415.726 449.037,415.132 449.371,414.438C449.706,413.744 449.96,412.963 450.135,412.094C450.31,411.226 450.397,410.287 450.397,409.279C450.397,408.031 450.128,407.085 449.589,406.441C449.049,405.797 448.296,405.475 447.327,405.475L446.264,405.475L443.689,417.74Z" style="fill:rgb(0,135,84);fill-rule:nonzero;"></path>                <path d="M457.765,422.592L462.392,400.698L475.39,400.698L474.417,405.445L467.274,405.445L466.57,408.89L473.219,408.89L472.141,413.637L465.492,413.637L464.638,417.77L471.781,417.77L470.763,422.592L457.765,422.592Z" style="fill:rgb(0,135,84);fill-rule:nonzero;"></path>                <path d="M288.954,453.26L293.581,431.367L299.377,431.367C301.892,431.367 303.819,431.866 305.157,432.864C306.495,433.863 307.163,435.365 307.163,437.372C307.163,438.709 306.944,439.825 306.505,440.719C306.065,441.612 305.521,442.328 304.872,442.867C304.223,443.407 303.58,443.816 302.941,444.095L306.894,453.26L300.515,453.26L297.595,445.293L296.501,445.293L294.809,453.26L288.954,453.26ZM297.445,440.846L298.209,440.846C298.598,440.846 298.977,440.788 299.347,440.674C299.716,440.559 300.048,440.379 300.342,440.135C300.637,439.89 300.872,439.571 301.046,439.176C301.221,438.782 301.308,438.305 301.308,437.746C301.308,437.217 301.159,436.768 300.859,436.398C300.56,436.029 300.035,435.844 299.287,435.844L298.493,435.844L297.445,440.846Z" style="fill:rgb(0,135,84);fill-rule:nonzero;"></path>                <path d="M308.886,453.26L313.513,431.367L326.511,431.367L325.538,436.114L318.395,436.114L317.691,439.558L324.34,439.558L323.261,444.305L316.613,444.305L315.759,448.438L322.902,448.438L321.884,453.26L308.886,453.26Z" style="fill:rgb(0,135,84);fill-rule:nonzero;"></path>                <path d="M326.122,453.26L330.749,431.367L343.657,431.367L342.654,436.114L335.601,436.114L334.732,440.292L341.261,440.292L340.228,445.069L333.669,445.069L331.977,453.26L326.122,453.26Z" style="fill:rgb(0,135,84);fill-rule:nonzero;"></path>                <path d="M341.261,453.26L352.402,431.367L359.935,431.367L361.776,453.26L356.071,453.26L355.921,449.157L349.213,449.157L347.341,453.26L341.261,453.26ZM351.354,444.485L355.742,444.485L355.517,438.195C355.507,437.706 355.497,437.222 355.487,436.743C355.477,436.264 355.477,435.809 355.487,435.38L355.397,435.38C355.247,435.839 355.085,436.289 354.911,436.728C354.736,437.167 354.544,437.616 354.334,438.076L351.354,444.485Z" style="fill:rgb(0,135,84);fill-rule:nonzero;"></path>                <path d="M373.457,453.559C371.63,453.559 370.117,453.203 368.919,452.489C367.721,451.775 366.828,450.779 366.239,449.501C365.65,448.223 365.355,446.736 365.355,445.039C365.355,443.731 365.495,442.413 365.775,441.085C366.054,439.758 366.489,438.492 367.078,437.289C367.667,436.086 368.42,435.013 369.339,434.07C370.257,433.126 371.35,432.383 372.618,431.839C373.886,431.294 375.344,431.022 376.991,431.022C378.448,431.022 379.756,431.195 380.914,431.539C382.072,431.883 383.165,432.365 384.194,432.984L381.977,437.551C381.049,437.002 380.195,436.591 379.417,436.316C378.638,436.041 377.829,435.904 376.991,435.904C376.282,435.904 375.631,436.064 375.037,436.383C374.443,436.703 373.914,437.147 373.449,437.716C372.985,438.285 372.591,438.942 372.266,439.685C371.942,440.429 371.697,441.233 371.533,442.096C371.368,442.96 371.285,443.841 371.285,444.739C371.285,446.067 371.567,447.063 372.132,447.727C372.696,448.391 373.497,448.723 374.535,448.723C375.423,448.723 376.292,448.613 377.141,448.393C377.989,448.174 378.958,447.834 380.046,447.375L380.046,452.212C378.978,452.691 377.897,453.035 376.804,453.245C375.711,453.455 374.595,453.559 373.457,453.559Z" style="fill:rgb(0,135,84);fill-rule:nonzero;"></path>                <path d="M392.774,453.559C390.947,453.559 389.435,453.203 388.237,452.489C387.039,451.775 386.145,450.779 385.556,449.501C384.967,448.223 384.673,446.736 384.673,445.039C384.673,443.731 384.813,442.413 385.092,441.085C385.372,439.758 385.806,438.492 386.395,437.289C386.984,436.086 387.738,435.013 388.656,434.07C389.575,433.126 390.668,432.383 391.936,431.839C393.204,431.294 394.661,431.022 396.308,431.022C397.766,431.022 399.074,431.195 400.232,431.539C401.39,431.883 402.483,432.365 403.511,432.984L401.295,437.551C400.366,437.002 399.513,436.591 398.734,436.316C397.956,436.041 397.147,435.904 396.308,435.904C395.6,435.904 394.948,436.064 394.354,436.383C393.76,436.703 393.231,437.147 392.767,437.716C392.303,438.285 391.908,438.942 391.584,439.685C391.259,440.429 391.015,441.233 390.85,442.096C390.685,442.96 390.603,443.841 390.603,444.739C390.603,446.067 390.885,447.063 391.449,447.727C392.013,448.391 392.814,448.723 393.852,448.723C394.741,448.723 395.609,448.613 396.458,448.393C397.307,448.174 398.275,447.834 399.363,447.375L399.363,452.212C398.295,452.691 397.214,453.035 396.121,453.245C395.028,453.455 393.912,453.559 392.774,453.559Z" style="fill:rgb(0,135,84);fill-rule:nonzero;"></path>                <path d="M402.927,453.26L407.554,431.367L413.41,431.367L408.782,453.26L402.927,453.26Z" style="fill:rgb(0,135,84);fill-rule:nonzero;"></path>                <path d="M423.233,453.559C421.366,453.559 419.811,453.21 418.568,452.511C417.325,451.812 416.39,450.832 415.761,449.569C415.132,448.306 414.817,446.826 414.817,445.129C414.817,443.991 414.922,442.857 415.132,441.729C415.341,440.601 415.661,439.511 416.09,438.457C416.519,437.404 417.058,436.428 417.707,435.53C418.356,434.631 419.12,433.845 419.998,433.171C420.877,432.497 421.873,431.971 422.986,431.591C424.099,431.212 425.334,431.022 426.692,431.022C429.388,431.022 431.432,431.791 432.824,433.329C434.217,434.866 434.913,436.907 434.913,439.453C434.913,440.591 434.811,441.727 434.606,442.86C434.402,443.993 434.092,445.086 433.678,446.139C433.264,447.193 432.737,448.169 432.098,449.067C431.459,449.965 430.708,450.752 429.844,451.426C428.981,452.099 428,452.624 426.902,452.998C425.804,453.372 424.581,453.559 423.233,453.559ZM423.742,448.723C424.231,448.723 424.701,448.613 425.15,448.393C425.599,448.174 426.021,447.862 426.415,447.457C426.809,447.053 427.164,446.569 427.478,446.005C427.793,445.441 428.065,444.817 428.294,444.133C428.524,443.449 428.699,442.718 428.819,441.939C428.938,441.16 428.998,440.352 428.998,439.513C428.998,438.385 428.759,437.496 428.279,436.848C427.8,436.199 427.106,435.874 426.198,435.874C425.649,435.874 425.135,435.999 424.656,436.249C424.176,436.498 423.735,436.843 423.33,437.282C422.926,437.721 422.564,438.235 422.245,438.824C421.925,439.413 421.653,440.052 421.429,440.741C421.204,441.43 421.034,442.144 420.919,442.882C420.805,443.621 420.747,444.36 420.747,445.099C420.747,445.887 420.859,446.551 421.084,447.09C421.309,447.629 421.643,448.036 422.087,448.311C422.532,448.585 423.083,448.723 423.742,448.723Z" style="fill:rgb(0,135,84);fill-rule:nonzero;"></path>                <path d="M436.351,453.26L440.978,431.367L447.792,431.367L452.074,446.087L452.209,446.087C452.259,445.648 452.331,445.089 452.426,444.41C452.521,443.731 452.626,443.042 452.741,442.343C452.856,441.645 452.963,441.041 453.063,440.531L455.024,431.367L460.236,431.367L455.608,453.26L448.795,453.26L444.467,437.866L444.347,437.866C444.337,438.066 444.307,438.407 444.258,438.892C444.208,439.376 444.143,439.927 444.063,440.546C443.983,441.165 443.896,441.792 443.801,442.426C443.706,443.06 443.604,443.626 443.494,444.125L441.562,453.26L436.351,453.26Z" style="fill:rgb(0,135,84);fill-rule:nonzero;"></path>                <path d="M460.58,453.26L465.207,431.367L478.205,431.367L477.232,436.114L470.089,436.114L469.385,439.558L476.034,439.558L474.956,444.305L468.307,444.305L467.453,448.438L474.596,448.438L473.578,453.26L460.58,453.26Z" style="fill:rgb(0,135,84);fill-rule:nonzero;"></path>                <path d="M483.611,453.559C482.523,453.559 481.487,453.435 480.504,453.185C479.521,452.935 478.675,452.581 477.966,452.122L477.966,446.881C478.764,447.37 479.705,447.804 480.789,448.183C481.872,448.563 482.873,448.753 483.791,448.753C484.16,448.753 484.485,448.713 484.764,448.633C485.044,448.553 485.278,448.438 485.468,448.288C485.658,448.139 485.8,447.951 485.895,447.727C485.99,447.502 486.037,447.25 486.037,446.971C486.037,446.601 485.927,446.257 485.708,445.937C485.488,445.618 485.191,445.301 484.817,444.986C484.442,444.672 484.031,444.33 483.581,443.961C482.912,443.412 482.326,442.838 481.822,442.239C481.318,441.64 480.928,440.983 480.654,440.269C480.379,439.556 480.242,438.754 480.242,437.866C480.242,436.878 480.427,435.969 480.796,435.14C481.165,434.312 481.692,433.591 482.376,432.977C483.06,432.363 483.878,431.888 484.832,431.554C485.785,431.22 486.841,431.052 487.999,431.052C489.177,431.052 490.317,431.192 491.421,431.472C492.524,431.751 493.53,432.146 494.438,432.655L492.416,437.102C491.718,436.753 490.986,436.446 490.223,436.181C489.459,435.917 488.738,435.784 488.059,435.784C487.639,435.784 487.3,435.837 487.041,435.942C486.781,436.046 486.581,436.181 486.442,436.346C486.302,436.511 486.204,436.688 486.15,436.878C486.095,437.067 486.067,437.252 486.067,437.432C486.067,437.741 486.135,438.038 486.269,438.323C486.404,438.607 486.646,438.922 486.996,439.266C487.345,439.61 487.839,440.022 488.478,440.501C489.287,441.1 489.948,441.709 490.462,442.328C490.976,442.947 491.353,443.599 491.593,444.283C491.832,444.966 491.952,445.718 491.952,446.536C491.952,447.624 491.768,448.603 491.398,449.471C491.029,450.34 490.49,451.079 489.781,451.688C489.072,452.297 488.201,452.761 487.168,453.08C486.135,453.4 484.949,453.559 483.611,453.559Z" style="fill:rgb(0,135,84);fill-rule:nonzero;"></path>            </g>        </g>        <g id="Capa1" transform="matrix(1,0,0,1,0,-3)">            <g transform="matrix(0.983525,0,0,0.983525,511.263,289.594)">                <path d="M0,115.5C-0.98,115.5 -1.966,115.482 -2.953,115.447C-23.962,115.354 -46.795,115.311 -74.732,115.311C-91.253,115.311 -107.773,115.325 -124.296,115.341C-140.821,115.355 -157.349,115.37 -173.876,115.37C-184.338,115.37 -194.802,115.364 -205.268,115.349C-208.242,115.349 -209.852,113.918 -210.053,111.097C-210.249,109.636 -210.429,108.406 -210.78,107.092L-210.929,106.53L-210.816,105.96C-210.573,104.743 -209.754,103.241 -207.233,102.997L-207.019,102.974L-206.842,102.948L-206.665,102.948C-188.612,102.948 -170.552,102.933 -152.489,102.916C-134.418,102.899 -116.343,102.883 -98.268,102.883C-66.556,102.883 -40.718,102.936 -16.953,103.049L-16.599,103.051L-16.26,103.15C-15.612,103.341 -14.926,103.437 -14.219,103.437C-13.597,103.437 -12.964,103.362 -12.338,103.215L-12.217,103.187L-12.095,103.17C-10.776,102.994 -9.591,102.909 -8.471,102.909C-8.014,102.909 -7.556,102.924 -7.099,102.954C-6.831,102.979 -6.646,102.987 -6.463,102.987C-5.967,102.987 -5.443,102.927 -4.907,102.808L-4.734,102.775C7.601,100.931 19.474,96.968 30.56,90.996C31.263,90.549 32.062,90.239 32.988,90.058C56.574,76.744 65.129,53.791 67.902,34.81L68.548,28.398C68.561,28.271 68.545,28.039 68.529,27.814C68.483,27.128 68.41,26.049 68.932,24.936C69.019,24.246 69.024,23.438 68.945,22.574L68.91,22.176L68.999,21.786C69.214,20.859 69.214,19.837 68.999,18.91L68.936,18.633L68.936,18.348C68.936,13.646 68.083,9.035 66.4,4.642L64.623,0L69.409,1.341C71.687,1.979 73.18,3.377 74.498,4.611C75.023,5.104 75.521,5.568 76.019,5.936L76.347,6.178C76.558,6.306 76.786,6.465 77.01,6.666L77.035,6.685L77.035,6.689C77.389,7.014 77.727,7.443 77.957,8.019L78.136,8.466L78.136,8.602C84.463,17.138 84.888,27.51 84.533,35.657C82.858,69.807 65.925,95.83 38.071,107.066C24.883,112.734 12.412,115.5 0.001,115.5L0,115.5Z" style="fill:rgb(0,135,84);fill-rule:nonzero;"></path>            </g>            <g transform="matrix(0.983525,0,0,0.983525,570.777,405.649)">                <path d="M0,-121.746L3.556,-112.462C5.128,-108.357 5.925,-104.047 5.925,-99.651L5.925,-99.081L6.053,-98.526C6.182,-97.97 6.182,-97.331 6.053,-96.775L5.873,-95.995L5.945,-95.198C5.995,-94.653 6.004,-94.136 5.972,-93.692C5.38,-92.163 5.474,-90.771 5.524,-90.015C5.53,-89.931 5.538,-89.847 5.541,-89.762L4.924,-83.592C2.253,-65.274 -5.938,-43.162 -28.43,-30.302C-29.451,-30.057 -30.382,-29.677 -31.207,-29.166C-42.019,-23.352 -53.593,-19.494 -65.615,-17.695L-65.788,-17.67L-65.96,-17.632C-66.313,-17.553 -66.664,-17.512 -66.974,-17.512C-67.08,-17.512 -67.182,-17.517 -67.277,-17.526L-67.359,-17.534L-67.442,-17.54C-67.943,-17.573 -68.461,-17.59 -68.98,-17.59C-70.213,-17.59 -71.507,-17.497 -72.936,-17.307L-73.18,-17.274L-73.42,-17.218C-73.859,-17.114 -74.299,-17.062 -74.729,-17.062C-75.196,-17.062 -75.646,-17.125 -76.064,-17.248L-76.743,-17.447L-77.451,-17.451C-101.216,-17.563 -127.052,-17.616 -158.76,-17.616C-176.839,-17.616 -194.918,-17.6 -212.993,-17.583C-231.058,-17.567 -249.12,-17.551 -267.175,-17.551L-267.53,-17.551L-267.882,-17.501L-267.983,-17.491C-272.404,-17.062 -273.508,-13.88 -273.778,-12.531L-274.006,-11.389L-273.706,-10.263C-273.397,-9.105 -273.229,-7.972 -273.049,-6.626C-272.891,-4.836 -271.889,-0.15 -265.775,-0.15C-255.315,-0.136 -244.847,-0.129 -234.384,-0.129C-217.854,-0.129 -201.327,-0.144 -184.802,-0.159C-168.282,-0.174 -151.763,-0.188 -135.244,-0.188C-107.341,-0.188 -84.532,-0.144 -63.474,-0.051C-62.49,-0.017 -61.494,0 -60.511,0C-47.767,0 -34.991,-2.824 -21.452,-8.635C7.313,-20.265 24.797,-47.076 26.519,-82.206C26.887,-90.663 26.441,-101.382 19.95,-110.452L19.768,-110.908C19.562,-111.423 19.306,-111.867 19.025,-112.25L19.025,-112.577L18.069,-113.282C17.782,-113.529 17.498,-113.73 17.238,-113.894L16.991,-114.076C16.611,-114.356 16.166,-114.772 15.695,-115.213C14.321,-116.5 12.438,-118.263 9.573,-119.065L0,-121.746ZM8.225,-114.251C10.725,-113.551 12.125,-111.451 14.025,-110.051L14.025,-109.951C14.425,-109.751 14.925,-109.551 15.125,-109.051L15.125,-108.551C21.125,-100.951 21.925,-91.651 21.525,-82.451C20.025,-51.85 5.625,-24.951 -23.375,-13.251C-35.299,-8.127 -47.569,-5 -60.511,-5C-61.462,-5 -62.417,-5.017 -63.375,-5.051C-87.345,-5.157 -111.291,-5.188 -135.244,-5.188C-168.287,-5.188 -201.33,-5.129 -234.384,-5.129C-244.844,-5.129 -255.311,-5.136 -265.775,-5.15C-267.275,-5.15 -267.975,-5.451 -268.075,-7.15C-268.275,-8.65 -268.475,-10.051 -268.875,-11.551C-268.675,-12.551 -267.875,-12.451 -267.175,-12.551C-231.054,-12.551 -194.909,-12.616 -158.76,-12.616C-131.66,-12.616 -104.554,-12.579 -77.475,-12.451C-76.577,-12.186 -75.652,-12.062 -74.729,-12.062C-73.902,-12.062 -73.077,-12.162 -72.275,-12.35C-71.177,-12.497 -70.079,-12.59 -68.98,-12.59C-68.579,-12.59 -68.177,-12.577 -67.775,-12.551C-67.507,-12.524 -67.239,-12.512 -66.974,-12.512C-66.246,-12.512 -65.534,-12.604 -64.875,-12.751C-52.175,-14.65 -39.975,-18.751 -28.675,-24.85C-28.075,-25.251 -27.375,-25.451 -26.675,-25.551C-2.775,-38.85 8.325,-63.051 10.625,-89.35C10.625,-89.451 10.725,-89.651 10.725,-89.85C10.625,-89.751 10.625,-89.551 10.525,-89.35C10.625,-90.35 10.225,-91.35 10.825,-92.251C11.025,-93.35 11.025,-94.551 10.925,-95.651C11.225,-96.951 11.225,-98.35 10.925,-99.651C10.925,-104.651 10.025,-109.551 8.225,-114.251" style="fill:white;fill-rule:nonzero;"></path>            </g>            <g transform="matrix(0.983525,0,0,0.983525,283.183,370.511)">                <path d="M0,33.185C-0.114,33.185 -0.229,33.181 -0.343,33.175C-29.332,33.125 -58.743,33.101 -87.764,33.101C-116.81,33.101 -146.247,33.125 -175.259,33.175L-179.312,33.182L-177.5,29.558C-176.809,28.174 -175.898,27.024 -175.096,26.008C-174.403,25.132 -173.746,24.301 -173.343,23.467C-173.025,22.265 -172.139,20.958 -169.816,20.815C-169.75,20.811 -169.684,20.809 -169.619,20.8L-169.454,20.778L-169.273,20.775C-153.988,20.715 -137.27,20.686 -118.164,20.686C-101.13,20.686 -84.096,20.708 -67.061,20.731C-50.028,20.752 -32.995,20.775 -15.964,20.775C-13.185,20.775 -11.846,20.042 -10.656,17.873C-9.065,15.033 -7.268,12.333 -5.53,9.723C-4.15,7.651 -2.724,5.508 -1.456,3.371C-0.993,2.473 0.494,0 2.808,0C3.392,0 5.358,0.208 6.136,2.875L6.164,2.97L6.184,3.066C7.031,7.13 7.528,11.331 8.009,15.393C8.111,16.254 8.336,18.122 8.336,18.122L8.336,18.275C8.336,18.62 8.496,19.084 8.681,19.622C9.016,20.599 9.476,21.936 9.198,23.51L9.113,23.995L8.85,24.411C8.441,25.057 8.022,25.692 7.603,26.328C6.798,27.543 6.039,28.694 5.362,29.915C4.399,31.905 2.306,33.185 0,33.185" style="fill:rgb(0,135,84);fill-rule:nonzero;"></path>            </g>            <g transform="matrix(0.983525,0,0,0.983525,285.945,405.612)">                <path d="M0,-38.188C-3.574,-38.188 -5.647,-35.069 -6.45,-33.533C-7.675,-31.472 -9.01,-29.467 -10.422,-27.347C-12.185,-24.699 -14.008,-21.959 -15.634,-19.056C-16.308,-17.829 -16.719,-17.414 -18.772,-17.414C-35.801,-17.414 -53.118,-17.436 -69.865,-17.458C-86.616,-17.479 -103.937,-17.502 -120.972,-17.502C-140.082,-17.502 -156.803,-17.473 -172.091,-17.414L-172.437,-17.412L-172.707,-17.374L-172.775,-17.369C-176.566,-17.136 -177.962,-14.7 -178.465,-13.186C-178.763,-12.625 -179.3,-11.945 -179.865,-11.231C-180.743,-10.121 -181.738,-8.862 -182.544,-7.25L-186.169,0L-178.063,-0.013C-149.052,-0.063 -119.616,-0.088 -90.572,-0.088C-61.574,-0.088 -32.184,-0.063 -3.218,-0.013C-3.081,-0.007 -2.944,-0.003 -2.808,-0.003C0.428,-0.003 3.376,-1.806 4.77,-4.614C5.392,-5.731 6.115,-6.825 6.878,-7.98C7.308,-8.63 7.737,-9.281 8.155,-9.943L8.681,-10.775L8.852,-11.745C9.242,-13.955 8.637,-15.714 8.237,-16.878C8.163,-17.093 8.065,-17.379 8.028,-17.524L8.028,-17.718L7.991,-18.021C7.886,-18.876 7.785,-19.736 7.683,-20.596C7.195,-24.709 6.691,-28.963 5.823,-33.133L5.783,-33.325L5.728,-33.513C4.723,-36.959 2.11,-38.188 0,-38.188M0,-33.188C0.367,-33.188 0.7,-32.894 0.928,-32.113C1.928,-27.313 2.428,-22.313 3.028,-17.414C3.028,-15.713 4.228,-14.313 3.928,-12.613C2.728,-10.713 1.428,-8.914 0.328,-6.914C-0.234,-5.695 -1.499,-5.003 -2.808,-5.003C-2.896,-5.003 -2.984,-5.007 -3.072,-5.013C-32.222,-5.063 -61.397,-5.088 -90.572,-5.088C-119.747,-5.088 -148.922,-5.063 -178.072,-5.013C-176.872,-7.414 -174.772,-9.113 -173.772,-11.414C-173.572,-12.513 -172.772,-12.313 -172.072,-12.414C-155.037,-12.48 -138.007,-12.502 -120.972,-12.502C-86.907,-12.502 -52.836,-12.414 -18.772,-12.414C-15.272,-12.414 -12.972,-13.513 -11.272,-16.613C-8.472,-21.613 -4.972,-26.213 -2.072,-31.113C-1.667,-31.923 -0.762,-33.188 0,-33.188" style="fill:white;fill-rule:nonzero;"></path>            </g>            <g transform="matrix(0.983525,0,0,0.983525,169.903,282.148)">                <path d="M0,78.24C-0.958,78.065 -1.662,77.585 -2.13,76.804L-3.001,75.35L-1.974,74.003C10.408,57.763 22.855,41.116 34.892,25.018C40.731,17.208 46.568,9.402 52.415,1.617C53.272,0.543 54.418,-0.151 55.605,-0.348L55.808,-0.382L74.763,-0.382L75.165,1.628C75.577,3.684 74.405,4.974 73.904,5.525C73.856,5.578 73.808,5.628 73.766,5.68C66.739,15.117 59.465,24.728 52.431,34.023C41.84,48.015 30.892,62.481 20.414,76.844L20.414,78.18L18.056,78.314C16.954,78.377 15.722,78.407 14.289,78.407C12.991,78.407 11.669,78.383 10.347,78.358C9.056,78.335 7.764,78.311 6.497,78.311C4.489,78.311 2.919,78.373 1.558,78.507L0.382,78.622L0,78.24Z" style="fill:rgb(0,135,84);fill-rule:nonzero;"></path>            </g>            <g transform="matrix(0.983525,0,0,0.983525,245.45,362.036)">                <path d="M0,-84.107L-21.213,-84.107L-21.621,-84.039C-23.407,-83.741 -25.114,-82.718 -26.304,-81.231L-26.351,-81.171L-26.397,-81.11C-32.236,-73.335 -38.065,-65.539 -43.897,-57.739C-55.939,-41.634 -68.391,-24.981 -80.775,-8.739L-82.831,-6.042L-81.086,-3.135C-80.647,-2.402 -79.738,-1.278 -78.096,-0.733L-77.363,0L-75.011,-0.231C-73.732,-0.357 -72.241,-0.415 -70.316,-0.415C-69.079,-0.415 -67.773,-0.391 -66.511,-0.367C-65.203,-0.344 -63.85,-0.318 -62.521,-0.318C-61.042,-0.318 -59.765,-0.35 -58.617,-0.415L-53.899,-0.682L-53.899,-3.565C-43.579,-17.697 -32.809,-31.927 -22.385,-45.699C-15.383,-54.951 -8.143,-64.517 -1.091,-73.983L-1.059,-74.019C0.614,-75.86 1.241,-77.902 0.804,-80.088L0,-84.107ZM-4.099,-79.107C-3.899,-78.107 -4.599,-77.607 -4.999,-77.107C-22.799,-53.207 -41.099,-29.607 -58.599,-5.607C-58.799,-5.607 -58.899,-5.507 -58.899,-5.407C-60.07,-5.341 -61.284,-5.318 -62.521,-5.318C-65.087,-5.318 -67.75,-5.415 -70.316,-5.415C-72.113,-5.415 -73.863,-5.367 -75.499,-5.207C-75.899,-5.607 -76.499,-5.207 -76.799,-5.707C-58.499,-29.707 -40.499,-54.007 -22.399,-78.107C-21.999,-78.607 -21.399,-79.007 -20.799,-79.107L-4.099,-79.107" style="fill:white;fill-rule:nonzero;"></path>            </g>            <g transform="matrix(0.983525,0,0,0.983525,326.134,288.935)">                <path d="M0,67.727C-1.641,57.843 -3.518,47.777 -5.333,38.043C-7.942,24.048 -10.641,9.576 -12.709,-4.725L-13.122,-7.583L-10.234,-7.583C-9.488,-7.583 -8.742,-7.571 -7.996,-7.56C-7.275,-7.549 -6.555,-7.538 -5.834,-7.538C-5.139,-7.538 -4.443,-7.548 -3.747,-7.58C-3.664,-7.587 -3.512,-7.593 -3.366,-7.593C-2.087,-7.593 0.146,-7.117 0.726,-3.93C4.007,14.938 7.336,33.467 10.624,51.161L10.646,51.276L10.656,51.392C10.788,52.853 10.551,54.435 9.987,55.845C8.401,60.009 6.754,64.331 4.702,68.436L1.26,75.32L0,67.727Z" style="fill:rgb(0,135,84);fill-rule:nonzero;"></path>            </g>            <g transform="matrix(0.983525,0,0,0.983525,322.823,370.884)">                <path d="M0,-93.415C-0.177,-93.415 -0.362,-93.409 -0.555,-93.396C-1.121,-93.372 -1.747,-93.36 -2.468,-93.36C-3.176,-93.36 -3.884,-93.371 -4.592,-93.381C-5.351,-93.393 -6.109,-93.404 -6.868,-93.404L-12.643,-93.404L-11.816,-87.688C-9.741,-73.337 -7.038,-58.84 -4.424,-44.821C-2.611,-35.099 -0.737,-25.045 0.9,-15.186L3.42,0L10.305,-13.768C12.411,-17.98 14.079,-22.357 15.692,-26.591C16.387,-28.35 16.679,-30.324 16.512,-32.157L16.491,-32.389L16.448,-32.618C13.158,-50.329 9.83,-68.848 6.559,-87.661C5.785,-91.913 2.665,-93.415 0,-93.415M0,-88.415C1.089,-88.415 1.447,-87.825 1.632,-86.804C4.833,-68.404 8.132,-50.004 11.532,-31.704C11.632,-30.604 11.433,-29.404 11.032,-28.404C9.433,-24.204 7.833,-20.004 5.833,-16.004C1.833,-40.104 -3.368,-64.204 -6.868,-88.404C-5.401,-88.404 -3.934,-88.36 -2.468,-88.36C-1.734,-88.36 -1.001,-88.371 -0.268,-88.404C-0.174,-88.411 -0.084,-88.415 0,-88.415" style="fill:white;fill-rule:nonzero;"></path>            </g>            <g transform="matrix(0.983525,0,0,0.983525,147.469,304.073)">                <path d="M0,12.326C-10.488,12.226 -20.585,12.226 -31.276,12.226L-34.701,12.226L-33.657,8.964C-33.165,7.426 -32.354,6.187 -31.638,5.095C-30.995,4.112 -30.439,3.264 -30.183,2.351L-29.672,0.526L-28.338,0.526C-27.512,0.115 -26.764,0.115 -26.477,0.115C-26.365,0.115 -25.976,0.126 -25.976,0.126L4.076,0.126L4.108,0.119C4.341,0.071 4.694,-0.002 5.104,-0.002C6.038,-0.002 6.86,0.378 7.417,1.067C8.03,1.826 8.216,2.796 7.968,3.95L7.839,4.553L7.445,5.026C6.058,6.691 4.699,8.427 3.295,10.329C2.63,11.373 1.671,12.046 0.515,12.277L0.26,12.328L0,12.326Z" style="fill:rgb(0,135,84);fill-rule:nonzero;"></path>            </g>            <g transform="matrix(0.983525,0,0,0.983525,152.488,318.66)">                <path d="M0,-17.333C-0.52,-17.333 -0.966,-17.264 -1.276,-17.205L-31.079,-17.205L-31.163,-17.208C-31.301,-17.212 -31.44,-17.216 -31.579,-17.216C-32.427,-17.216 -33.221,-17.078 -33.957,-16.804L-36.664,-16.802L-37.694,-13.153C-37.845,-12.613 -38.303,-11.915 -38.832,-11.106C-39.595,-9.941 -40.545,-8.491 -41.141,-6.629L-43.229,-0.105L-36.379,-0.105C-25.695,-0.105 -15.603,-0.105 -5.127,-0.005L-4.608,0L-4.099,-0.102C-2.312,-0.459 -0.779,-1.511 0.249,-3.078C1.608,-4.918 2.922,-6.596 4.262,-8.204L5.051,-9.151L5.31,-10.357C5.852,-12.886 4.883,-14.562 4.258,-15.335C3.231,-16.604 1.68,-17.333 0,-17.333M0,-12.333C0.338,-12.333 0.583,-12.159 0.421,-11.405C-1.079,-9.605 -2.479,-7.805 -3.879,-5.905C-4.179,-5.405 -4.579,-5.105 -5.079,-5.005C-15.579,-5.105 -25.779,-5.105 -36.379,-5.105C-35.579,-7.605 -33.579,-9.305 -32.879,-11.805C-32.779,-11.805 -32.679,-11.805 -32.579,-11.905C-32.246,-12.172 -31.913,-12.216 -31.579,-12.216C-31.413,-12.216 -31.246,-12.205 -31.079,-12.205L-0.879,-12.205C-0.648,-12.205 -0.29,-12.333 0,-12.333" style="fill:white;fill-rule:nonzero;"></path>            </g>            <g transform="matrix(0.983525,0,0,0.983525,484.891,305.227)">                <path d="M0,51.405C-7.166,48.818 -11.441,43.763 -12.363,36.786C-13.938,24.865 -5.104,9.946 4.156,3.447C8.066,0.376 12.93,-0.203 17.225,-0.714L17.353,-0.729C21.171,-1.181 24.806,-1.41 28.157,-1.41C39.769,-1.41 46.893,1.364 49.332,6.835L50.9,10.353L45.066,10.352C31.225,10.352 20.859,11.073 13.513,20.4C7.939,27.011 1.699,37.224 3.324,48.703L3.906,52.815L0,51.405Z" style="fill:rgb(0,135,84);fill-rule:nonzero;"></path>            </g>            <g transform="matrix(0.983525,0,0,0.983525,512.586,360.871)">                <path d="M0,-60.487C-3.45,-60.487 -7.184,-60.252 -11.097,-59.788L-11.228,-59.773C-15.831,-59.225 -21.043,-58.605 -25.492,-55.138C-35.292,-48.227 -44.745,-32.676 -43,-19.464C-41.963,-11.614 -36.993,-5.703 -29.007,-2.82L-21.194,0L-22.358,-8.224C-23.854,-18.787 -17.979,-28.343 -12.787,-34.5L-12.732,-34.564L-12.681,-34.63C-6.032,-43.071 3.776,-43.724 16.907,-43.724L17.897,-43.724L18.891,-43.723L26.595,-43.723L23.458,-50.759C20.58,-57.214 12.688,-60.487 0,-60.487M0,-55.487C7.804,-55.487 16.459,-54.179 18.891,-48.723C18.229,-48.723 17.57,-48.724 16.907,-48.724C4.442,-48.724 -8.158,-48.453 -16.609,-37.723C-23.609,-29.423 -28.909,-18.823 -27.309,-7.523C-47.809,-14.923 -35.409,-42.123 -22.509,-51.123C-19.109,-53.823 -14.709,-54.323 -10.509,-54.823C-7.904,-55.132 -4.068,-55.487 0,-55.487" style="fill:white;fill-rule:nonzero;"></path>            </g>            <g transform="matrix(0.983525,0,0,0.983525,280.209,359.258)">                <path d="M0,-46.708L0.932,-40.558C1.93,-33.973 2.945,-27.778 3.927,-21.788C4.123,-20.234 3.742,-18.717 2.895,-17.531C-0.599,-12.64 -4.153,-7.561 -7.592,-2.65C-8.068,-1.932 -9.031,-0.483 -11.14,-0.483C-13.696,-0.436 -16.299,-0.367 -18.943,-0.295C-21.89,-0.216 -24.888,-0.136 -27.998,-0.083L-32.919,0L0,-46.708Z" style="fill:rgb(0,135,84);fill-rule:nonzero;"></path>            </g>            <g transform="matrix(0.983525,0,0,0.983525,281.724,361.798)">                <path d="M0,-55.815L-7.167,-45.647L-33.667,-8.046L-39.338,0L-29.495,-0.167C-26.37,-0.22 -23.345,-0.301 -20.418,-0.379C-17.735,-0.451 -15.199,-0.519 -12.622,-0.566C-9.212,-0.594 -7.595,-3.027 -7.062,-3.83L-7.05,-3.847C-3.626,-8.738 -0.086,-13.795 3.389,-18.66C4.597,-20.351 5.141,-22.511 4.881,-24.586L4.87,-24.681L4.854,-24.775C3.874,-30.758 2.859,-36.944 1.864,-43.515L0,-55.815ZM-3.08,-42.766C-2.08,-36.166 -1.08,-30.066 -0.08,-23.966C0.02,-23.166 -0.18,-22.266 -0.68,-21.566C-4.18,-16.666 -7.68,-11.666 -11.18,-6.666C-11.58,-6.065 -11.88,-5.565 -12.68,-5.565C-18.18,-5.466 -23.68,-5.266 -29.58,-5.166L-3.08,-42.766" style="fill:white;fill-rule:nonzero;"></path>            </g>            <g transform="matrix(0,121.804,121.804,0,341.758,270.419)">                <path d="M0.005,0.175L0.742,-0.105L0.014,-0.246L0.014,-0.626L0.722,-1.178L0.722,-1.438L0.002,-0.917L0.005,-1.834L0.286,-2.008L0.296,-1.527L0.996,-2.057L0.999,-0.584L0.798,-0.448L0.993,-0.418L1,1.302L1,1.302C1,1.308 0.994,1.433 0.938,1.571C0.864,1.756 0.736,1.875 0.568,1.916L0.568,1.916C0.508,1.94 0.302,2.01 0.155,1.915C0.065,1.857 0.016,1.748 0.009,1.592C0.008,1.562 0.007,1.531 0.007,1.502C0.007,1.062 0.154,0.928 0.174,0.912C0.193,0.89 0.41,0.657 0.72,0.717L0.719,0.298L0,0.531L0.005,0.175ZM0.697,1.177C0.636,1.064 0.531,1.084 0.527,1.085L0.525,1.085C0.516,1.086 0.292,1.114 0.285,1.353C0.285,1.362 0.285,1.37 0.285,1.378C0.285,1.504 0.314,1.549 0.331,1.565C0.345,1.578 0.357,1.577 0.357,1.577L0.359,1.577L0.36,1.577C0.606,1.586 0.686,1.4 0.694,1.381C0.7,1.349 0.703,1.313 0.703,1.274C0.703,1.227 0.699,1.188 0.697,1.177ZM0.717,-0.738L0.379,-0.511L0.729,-0.458L0.717,-0.738Z" style="fill:url(#_Linear1);fill-rule:nonzero;"></path>            </g>            <g transform="matrix(0.983525,0,0,0.983525,256.375,307.169)">                <path d="M0,49.069L21.983,16.255L27.148,50.247L0,49.069ZM233.359,46.542C228.485,43.805 225.365,40.042 224.078,35.346C223.027,31.508 223.593,28.378 223.599,28.346L223.65,28.097L223.664,27.924C223.79,26.852 227.103,1.241 254.433,0.477C255.475,0.447 256.505,0.433 257.495,0.433C275.009,0.433 279.388,5.01 279.605,6.745L279.581,6.911L279.596,7.357C280.59,35.27 260.114,44.89 257.079,46.16C253.405,46.853 249.2,47.204 244.573,47.204C239.398,47.204 235.101,46.755 233.359,46.542M149.093,-29.821L149.098,-29.821L149.093,-29.821ZM155.996,-39.91L149.029,-39.821L110.129,-39.321L106.728,-39.277L105.52,-36.098L74.564,45.368L59.203,-34.071L58.419,-38.121L8.052,-38.121L6.551,-36.196L-60.348,49.579L-86.33,49.579L-27.653,-31.695L-21.903,-39.658L-31.725,-39.621L-138.925,-39.221L-141.699,-39.211L-143.159,-36.852L-161.659,-6.952L-166.271,0.503L-157.506,0.678L-107.217,1.682L-166.892,80.46L-172.949,88.456L-162.918,88.479L13.182,88.879L15.845,88.884L17.336,86.679L29.867,68.143L32.25,83.83L32.893,88.06L37.172,88.079L247.972,88.979L248.095,88.979L248.219,88.973C248.886,88.944 264.77,88.154 282.319,81.106C305.958,71.612 321.22,55.25 326.475,33.777C329.574,25.979 338.47,-0.405 326.107,-19.516C318.423,-31.394 304.292,-37.854 284.107,-38.717C280.269,-38.881 276.471,-38.964 272.818,-38.964C218.855,-38.964 200.891,-20.99 198,-17.62C196.25,-16.065 188.689,-9.006 182.14,2.312C173.51,17.228 170.269,33.34 172.631,49.268L127.163,49.19L153.85,-33.282L155.996,-39.91ZM244.573,52.204C248.881,52.204 253.792,51.912 258.494,50.979C258.494,50.979 285.793,40.879 284.593,7.179C284.593,7.179 286.277,-4.569 257.495,-4.567C256.468,-4.567 255.398,-4.552 254.293,-4.521C222.093,-3.621 218.694,27.379 218.694,27.379C218.694,27.379 215.494,42.879 231.793,51.379C231.793,51.379 237.333,52.204 244.573,52.204M149.093,-34.821L120.293,54.178L178.694,54.279C168.893,13.579 201.593,-14.121 201.593,-14.121C201.593,-14.121 216.379,-33.963 272.818,-33.963C276.342,-33.963 280.038,-33.886 283.893,-33.721C349.393,-30.921 321.593,32.279 321.694,32.279C309.994,81.178 247.994,83.979 247.994,83.979L37.193,83.079L24.994,2.779L-9.106,53.678L32.394,55.479L13.193,83.879L-162.907,83.479L-97.307,-3.121L-157.407,-4.321L-138.907,-34.221L-31.707,-34.621L-96.106,54.579L-57.907,54.579L10.494,-33.121L54.293,-33.121L72.994,63.579L110.194,-34.321L149.093,-34.821" style="fill:white;fill-rule:nonzero;"></path>            </g>            <g transform="matrix(0.983414,0.0148045,0.0148045,-0.983414,404.417,281.523)">                <path d="M-0.598,0.064L17.937,0.064L-7.221,-78.375L-27.018,-79.773L-0.598,0.064Z" style="fill:rgb(0,135,84);fill-rule:nonzero;"></path>            </g>            <g transform="matrix(0.983525,0,0,0.983525,402.091,362.231)">                <path d="M0,-84.66L-1.186,-81.248L-26.986,-7.049L-29.437,0L-21.986,-0.414L-7.586,-1.214L-4.208,-1.401L-3.126,-4.607L21.574,-77.807L23.766,-84.303L16.912,-84.406L3.612,-84.606L0,-84.66ZM3.537,-79.606L16.837,-79.406L-7.863,-6.206L-22.264,-5.406L3.537,-79.606Z" style="fill:white;fill-rule:nonzero;"></path>            </g>        </g>    </g>    <defs>        <linearGradient id="_Linear1" x1="0" y1="0" x2="1" y2="0" gradientUnits="userSpaceOnUse" gradientTransform="matrix(1,0,0,-1,0,-0.0466891)"><stop offset="0" style="stop-color:rgb(255,0,0);stop-opacity:1"></stop><stop offset="1" style="stop-color:rgb(72,0,0);stop-opacity:1"></stop></linearGradient>    </defs></svg>